<svg width="56" height="73" viewBox="0 0 56 73" fill="none" xmlns="http://www.w3.org/2000/svg">
<g clip-path="url(#clip0_1_11879)">
<path d="M0.287354 20.9951C0.287354 14.2821 5.72934 8.84009 12.4424 8.84009H44.1323C50.8454 8.84009 56.2874 14.2821 56.2874 20.9951V52.6848C56.2874 59.3979 50.8454 64.8401 44.1323 64.8401H12.4424C5.72934 64.8401 0.287354 59.3979 0.287354 52.685V20.9951Z" fill="white"/>
<path d="M0.287354 20.9951C0.287354 14.2823 5.72934 8.84009 12.4424 8.84009H44.1323C50.8454 8.84009 56.2874 14.2823 56.2874 20.9951V25.2902H0.287354V20.9951Z" fill="#CF74A2"/>
<path d="M17.6406 21.8557L20.3278 14.3896H22.0468L24.734 21.8557H23.2376L22.6578 20.1316H19.7167L19.1318 21.8559L17.6406 21.8557ZM20.0586 19.06H22.311L21.4877 16.6264C21.3846 16.3088 21.293 15.9876 21.2131 15.6633H21.1615C21.0785 15.9872 20.9853 16.3084 20.8819 16.6264L20.0586 19.06ZM26.0389 21.8557V14.3951H28.8658C29.4284 14.3951 29.9048 14.4882 30.2949 14.6746C30.6849 14.8576 30.9801 15.1198 31.1803 15.4617C31.3804 15.8033 31.4807 16.2003 31.4807 16.6524C31.4807 17.1083 31.3804 17.5102 31.1803 17.8588C30.9834 18.2074 30.6867 18.4768 30.2897 18.6665C29.8962 18.8564 29.4215 18.9513 28.8658 18.9513H27.3953V21.8561H26.0389V21.8557ZM28.7466 17.8276C29.0401 17.8276 29.2886 17.7809 29.4922 17.6878C29.6995 17.5945 29.8582 17.4616 29.9687 17.2891C30.0826 17.1165 30.1395 16.9042 30.1395 16.6522C30.1395 16.407 30.0843 16.2001 29.9739 16.0308C29.8634 15.8617 29.703 15.7341 29.4922 15.6477C29.2852 15.5615 29.0366 15.5183 28.7466 15.5183H27.3953V17.8276H28.7466ZM32.9147 21.8557V14.3899H36.1041C36.6047 14.3899 37.0327 14.4745 37.3882 14.6434C37.7438 14.8127 38.0149 15.0543 38.2011 15.3683C38.3875 15.6824 38.4809 16.0499 38.4809 16.4712C38.4809 16.7681 38.4273 17.0373 38.3203 17.2789C38.2199 17.5162 38.0614 17.7246 37.8594 17.8847C37.6558 18.0435 37.4125 18.1558 37.1295 18.2211V18.2628C37.5297 18.3489 37.8301 18.5389 38.0303 18.8323C38.2339 19.1256 38.3426 19.5295 38.3565 20.0439V20.1733C38.36 20.2113 38.3634 20.2527 38.3669 20.2974C38.3806 20.6703 38.4084 20.969 38.4496 21.1932C38.4911 21.4142 38.5447 21.5969 38.6102 21.7421V21.8559H37.2174C37.1588 21.7144 37.1121 21.5435 37.0776 21.3434C37.0431 21.1433 37.0138 20.8843 36.9895 20.5668L36.9793 20.3856L36.9689 20.1939C36.9585 19.8592 36.9051 19.597 36.8085 19.4069C36.7151 19.2172 36.5771 19.0843 36.3941 19.0083C36.2111 18.9289 35.973 18.8892 35.6796 18.8892H34.3128V21.8561H32.9147V21.8557ZM35.866 17.7603C36.1145 17.7603 36.3286 17.7188 36.5081 17.6359C36.6858 17.5577 36.8344 17.4255 36.9326 17.258C37.0362 17.0855 37.088 16.8767 37.088 16.6316C37.088 16.3831 37.0344 16.1758 36.9274 16.0102C36.8264 15.8466 36.6759 15.7196 36.4976 15.6477C36.3181 15.5717 36.1076 15.5337 35.866 15.5337H34.3128V17.7603H35.866Z" fill="#CBCBCB"/>
<path d="M17.6406 21.4216L20.3278 13.9556H22.0468L24.734 21.4216H23.2376L22.6578 19.6975H19.7167L19.1318 21.4218L17.6406 21.4216ZM20.0586 18.6259H22.311L21.4877 16.1923C21.3846 15.8747 21.293 15.5535 21.2131 15.2292H21.1615C21.0785 15.5531 20.9853 15.8743 20.8819 16.1923L20.0586 18.6259ZM26.0389 21.4216V13.961H28.8658C29.4284 13.961 29.9048 14.0541 30.2949 14.2406C30.6849 14.4235 30.9801 14.6857 31.1803 15.0276C31.3804 15.3692 31.4807 15.7662 31.4807 16.2184C31.4807 16.6742 31.3804 17.0762 31.1803 17.4247C30.9834 17.7733 30.6867 18.0427 30.2897 18.2324C29.8962 18.4223 29.4215 18.5172 28.8658 18.5172H27.3953V21.422H26.0389V21.4216ZM28.7466 17.3935C29.0401 17.3935 29.2886 17.3468 29.4922 17.2537C29.6995 17.1604 29.8582 17.0275 29.9687 16.855C30.0826 16.6824 30.1395 16.4701 30.1395 16.2181C30.1395 15.9729 30.0843 15.766 29.9739 15.5967C29.8634 15.4276 29.703 15.3 29.4922 15.2136C29.2852 15.1274 29.0366 15.0842 28.7466 15.0842H27.3953V17.3935H28.7466ZM32.9147 21.4216V13.9558H36.1041C36.6047 13.9558 37.0327 14.0404 37.3882 14.2093C37.7438 14.3786 38.0149 14.6202 38.2011 14.9343C38.3875 15.2483 38.4809 15.6158 38.4809 16.0371C38.4809 16.334 38.4273 16.6032 38.3203 16.8448C38.2199 17.0822 38.0614 17.2905 37.8594 17.4506C37.6558 17.6095 37.4125 17.7217 37.1295 17.787V17.8287C37.5297 17.9149 37.8301 18.1048 38.0303 18.3982C38.2339 18.6915 38.3426 19.0954 38.3565 19.6098V19.7392C38.36 19.7772 38.3634 19.8186 38.3669 19.8633C38.3806 20.2362 38.4084 20.5349 38.4496 20.7591C38.4911 20.9801 38.5447 21.1629 38.6102 21.3081V21.4218H37.2174C37.1588 21.2803 37.1121 21.1095 37.0776 20.9093C37.0431 20.7092 37.0138 20.4503 36.9895 20.1327L36.9793 19.9515L36.9689 19.7598C36.9585 19.4251 36.9051 19.1629 36.8085 18.9728C36.7151 18.7831 36.5771 18.6502 36.3941 18.5743C36.2111 18.4948 35.973 18.4551 35.6796 18.4551H34.3128V21.422H32.9147V21.4216ZM35.866 17.3262C36.1145 17.3262 36.3286 17.2847 36.5081 17.2018C36.6858 17.1237 36.8344 16.9914 36.9326 16.8239C37.0362 16.6514 37.088 16.4426 37.088 16.1975C37.088 15.949 37.0344 15.7417 36.9274 15.5761C36.8264 15.4126 36.6759 15.2856 36.4976 15.2136C36.3181 15.1376 36.1076 15.0997 35.866 15.0997H34.3128V17.3262H35.866Z" fill="white"/>
<path d="M20.6146 55.7874C18.6199 55.7874 16.9203 55.3193 15.516 54.3831C14.1116 53.4359 13.0474 52.0706 12.3231 50.2875C11.5986 48.5044 11.2363 46.3534 11.2363 43.8347V42.8986C11.2363 40.3688 11.5986 38.2123 12.3229 36.4292C13.0474 34.6349 14.106 33.2696 15.4993 32.3334C16.9036 31.3862 18.6032 30.9126 20.5979 30.9126C22.5928 30.9126 24.2867 31.3806 25.6798 32.3167C27.0728 33.2529 28.126 34.6181 28.8392 36.4125C29.5525 38.2067 29.9093 40.3688 29.9093 42.8986V43.8347C29.9093 46.3534 29.5525 48.5098 28.8392 50.3042C28.126 52.0873 27.0728 53.447 25.6798 54.3831C24.2978 55.3193 22.6095 55.7874 20.6146 55.7874ZM20.6313 52.0595C21.7122 52.0595 22.6095 51.7641 23.3228 51.1735C24.0471 50.5716 24.5876 49.6856 24.9442 48.5155C25.3121 47.3343 25.4959 45.8741 25.4959 44.1358V42.5977C25.4959 40.8591 25.3121 39.3992 24.9442 38.2178C24.5765 37.0366 24.0304 36.1449 23.3061 35.5432C22.5928 34.9413 21.6955 34.6405 20.6146 34.6405C19.5445 34.6405 18.642 34.9413 17.9064 35.5432C17.1708 36.1338 16.6136 37.0199 16.2347 38.2011C15.867 39.3825 15.6831 40.848 15.6831 42.5977V44.1358C15.6831 45.8631 15.8726 47.3176 16.2514 48.4988C16.6303 49.6689 17.1821 50.5549 17.9064 51.1568C18.642 51.7585 19.5502 52.0595 20.6313 52.0595ZM39.6051 55.4028V36.6967H39.421C38.6522 37.4099 37.7662 37.9784 36.7632 38.4018C35.7602 38.814 34.6513 39.0817 33.4364 39.2041V35.443C34.4171 35.309 35.3311 35.0473 36.178 34.6572C37.0363 34.2559 37.7996 33.7712 38.4682 33.2027C39.148 32.6232 39.7332 31.9881 40.2235 31.297H43.9514V55.4028H39.6051Z" fill="#AF5883"/>
<path d="M20.6146 54.9193C18.6199 54.9193 16.9203 54.4511 15.516 53.5149C14.1116 52.5677 13.0474 51.2024 12.3231 49.4193C11.5986 47.6362 11.2363 45.4852 11.2363 42.9665V42.0304C11.2363 39.5006 11.5986 37.3442 12.3229 35.5611C13.0474 33.7667 14.106 32.4014 15.4993 31.4653C16.9036 30.518 18.6032 30.0444 20.5979 30.0444C22.5928 30.0444 24.2867 30.5124 25.6798 31.4486C27.0728 32.3847 28.126 33.75 28.8392 35.5444C29.5525 37.3385 29.9093 39.5006 29.9093 42.0304V42.9665C29.9093 45.4852 29.5525 47.6417 28.8392 49.4361C28.126 51.2192 27.0728 52.5788 25.6798 53.5149C24.2978 54.4511 22.6095 54.9193 20.6146 54.9193ZM20.6313 51.1914C21.7122 51.1914 22.6095 50.896 23.3228 50.3054C24.0471 49.7035 24.5876 48.8175 24.9442 47.6473C25.3121 46.4661 25.4959 45.006 25.4959 43.2676V41.7295C25.4959 39.9909 25.3121 38.531 24.9442 37.3496C24.5765 36.1684 24.0304 35.2767 23.3061 34.6751C22.5928 34.0732 21.6955 33.7723 20.6146 33.7723C19.5445 33.7723 18.642 34.0732 17.9064 34.6751C17.1708 35.2657 16.6136 36.1517 16.2347 37.3329C15.867 38.5143 15.6831 39.9799 15.6831 41.7295V43.2676C15.6831 44.9949 15.8726 46.4494 16.2514 47.6306C16.6303 48.8007 17.1821 49.6868 17.9064 50.2887C18.642 50.8903 19.5502 51.1914 20.6313 51.1914ZM39.6051 54.5347V35.8285H39.421C38.6522 36.5417 37.7662 37.1102 36.7632 37.5337C35.7602 37.9459 34.6513 38.2135 33.4364 38.3359V34.5748C34.4171 34.4409 35.3311 34.1791 36.178 33.7891C37.0363 33.3877 37.7996 32.903 38.4682 32.3346C39.148 31.755 39.7332 31.1199 40.2235 30.4288H43.9514V54.5347H39.6051Z" fill="#CF74A2"/>
<path fill-rule="evenodd" clip-rule="evenodd" d="M0.319824 48.9685V52.7665C0.319824 59.4796 5.76181 64.9216 12.4749 64.9216H44.1648C50.8778 64.9216 56.3198 59.4796 56.3198 52.7667V48.9685C56.3198 55.6816 50.8778 61.1235 44.1648 61.1235H12.4749C5.76181 61.1235 0.319824 55.6816 0.319824 48.9685Z" fill="black" fill-opacity="0.2"/>
<path fill-rule="evenodd" clip-rule="evenodd" d="M12.4749 8.92139C5.76181 8.92139 0.319824 14.3636 0.319824 21.0764V21.3968C0.976413 15.3032 6.13623 10.5586 12.4043 10.5586H44.1648C50.8778 10.5586 56.3198 16.0006 56.3198 22.7137V21.0766C56.3198 14.3636 50.8778 8.9216 44.1648 8.9216L12.4749 8.92139Z" fill="white" fill-opacity="0.3"/>
</g>
<defs>
<clipPath id="clip0_1_11879">
<rect width="56" height="259" fill="white" transform="translate(0 -92.6599)"/>
</clipPath>
</defs>
</svg>
