<svg width="114" height="45" viewBox="0 0 114 45" fill="none" xmlns="http://www.w3.org/2000/svg">
<g id="07da4f72b24a1e98db8ac9ab6b04e090bc585f8f-163x64.svg" clip-path="url(#clip0_1_5943)">
<g id="Clip path group">
<mask id="mask0_1_5943" style="mask-type:luminance" maskUnits="userSpaceOnUse" x="0" y="0" width="113" height="45">
<g id="a">
<path id="Vector" d="M0.96875 0.310059H112.962V44.3101H0.96875V0.310059Z" fill="white"/>
</g>
</mask>
<g mask="url(#mask0_1_5943)">
<g id="Group">
<path id="Vector_2" d="M60.7126 34.7538C57.4814 34.7538 55.0064 34.0663 53.2189 32.6913C52.3461 31.9906 51.6448 31.1 51.1683 30.0874C50.6917 29.0747 50.4525 27.9666 50.4689 26.8476H55.1439C55.1627 27.4409 55.3072 28.0235 55.5679 28.5568C55.8287 29.0902 56.1997 29.5621 56.6564 29.9413C57.8251 30.6288 59.1314 30.9726 60.5064 30.9038C61.0564 30.9038 61.6751 30.8351 62.2251 30.6976C62.7566 30.6004 63.2679 30.4145 63.7376 30.1476C64.0814 29.9413 64.4251 29.5976 64.7001 29.2538C64.9751 28.7726 65.1126 28.2913 65.1126 27.8101C65.1126 27.2601 64.9751 26.7788 64.7001 26.3663C64.3564 25.9538 64.0126 25.6788 63.5314 25.4038L61.6751 24.7163L59.2689 24.1663L56.1751 23.3413C55.2814 23.0663 54.3876 22.6538 53.6314 22.1038C52.8751 21.6226 52.2564 20.9351 51.8439 20.1788C51.35 19.2247 51.1131 18.1585 51.1564 17.0851C51.097 16.0496 51.2988 15.0159 51.7433 14.0789C52.1878 13.1419 52.8607 12.3316 53.7001 11.7226C54.5939 11.1038 55.5564 10.6226 56.5876 10.3476C57.7783 10.048 59.0038 9.90925 60.2314 9.93505C62.5001 9.79755 64.7689 10.4851 66.6939 11.8601C67.5093 12.5307 68.1708 13.369 68.6335 14.3181C69.0961 15.2671 69.3491 16.3046 69.3751 17.3601H64.7689C64.7457 16.8236 64.6043 16.2989 64.3547 15.8235C64.1051 15.3481 63.7535 14.9337 63.3251 14.6101C62.3626 14.0601 61.2626 13.7163 60.1626 13.7851C59.0794 13.7265 58.003 13.9896 57.0689 14.5413C56.7079 14.7497 56.4091 15.0508 56.2036 15.4134C55.9981 15.776 55.8933 16.187 55.9001 16.6038C55.9001 17.0163 56.0376 17.4288 56.2439 17.7726C56.5189 18.1851 56.7939 18.4601 57.2064 18.6663C58.4936 19.117 59.8013 19.507 61.1251 19.8351L64.5626 20.7288C65.5251 21.0038 66.4876 21.4163 67.3126 22.0351C68.1376 22.5163 68.7564 23.2038 69.2376 24.0976C69.7189 25.0601 69.9251 26.1601 69.9251 27.2601C69.9251 28.3601 69.7189 29.4601 69.2376 30.4226C68.7948 31.3653 68.1352 32.1898 67.3126 32.8288C66.4189 33.5163 65.4564 33.9976 64.4251 34.2726C63.1876 34.6163 61.9501 34.8226 60.7126 34.7538ZM77.4189 26.4351L75.4939 28.4976V34.2726H71.0251V10.3476H75.4939V23.6851L81.4751 17.1538H86.8376L80.6501 23.6851L87.5939 34.2038H82.0939L77.4876 26.4351H77.4189ZM88.0064 10.3476H92.5439V14.4726H88.0064V10.3476ZM88.0064 17.0851H92.5439V34.2726H88.0064V17.0851ZM109.938 15.8476V13.8538H112.963V10.4163C111.958 10.2926 110.942 10.2926 109.938 10.4163C109.087 10.5217 108.268 10.8026 107.531 11.2413C106.844 11.6538 106.294 12.2038 105.95 12.8913C105.552 13.7272 105.363 14.6474 105.4 15.5726V17.0851H100.381V13.8538H103.269V10.5538C102.306 10.4163 101.275 10.4163 100.313 10.5538C99.4876 10.6226 98.7314 10.8976 97.9751 11.3101C97.2876 11.7226 96.8064 12.3413 96.3939 13.0288C96.004 13.843 95.8154 14.739 95.8439 15.6413V17.0163H93.5751V20.2476H95.8439V34.2726H100.381V20.2476H105.4V34.2726H109.938V20.2476H112.963V17.0851H109.938V15.8476ZM29.0189 2.5788C30.9439 2.5788 32.8001 2.92255 34.5189 3.6788C30.6352 1.20768 26.0688 0.0297036 21.4744 0.313766C16.88 0.597829 12.4935 2.32934 8.94387 5.26005L8.11887 6.0163L7.29387 6.8413L6.46887 7.6663L5.78137 8.56005L5.09387 9.24755L4.40637 10.2101L4.13137 10.6913C4.13137 10.8288 3.92512 11.0351 3.85637 11.1038L3.37512 12.0663L2.89387 13.0976L2.48137 13.9913L2.13762 14.8851L1.93137 15.5726L1.51887 16.9476L1.31262 18.0476V18.2538C0.350119 23.4101 1.31262 28.7726 3.92512 33.3788L4.81887 34.7538L5.30012 35.4413L5.78137 36.0601L6.46887 36.8851L7.29387 37.7101L7.84387 38.2601L8.18762 38.5351L8.32512 38.6038L8.46262 38.7413L9.08137 39.2226L9.21887 39.2913L9.35637 39.4288L10.0439 39.8413L10.3876 39.9788L10.8689 40.2538C11.0064 40.3226 11.2126 40.4601 11.4189 40.4601L12.5876 40.9413L13.2064 41.0788L13.7564 41.2163L14.3064 41.2851L16.3001 41.4913C19.6288 41.3678 22.7813 39.964 25.1001 37.5726C26.2689 36.3351 27.1626 34.8226 27.8501 33.2413L27.9189 32.8976L28.1251 32.3476L28.3314 31.4538L28.4689 31.0413L28.6064 29.3226V28.7038L27.3689 28.5663C24.0745 28.1687 21.0592 26.5193 18.9475 23.9597C16.8358 21.4 15.7894 18.1262 16.0251 14.8163C16.216 11.5017 17.6553 8.38251 20.0535 6.08645C22.4516 3.79039 25.6304 2.48796 28.9501 2.4413L29.0189 2.5788ZM10.8001 35.7163C8.58826 33.7823 6.82788 31.3864 5.64325 28.6977C4.45862 26.009 3.87861 23.093 3.94418 20.1556C4.00975 17.2182 4.71929 14.331 6.02271 11.6978C7.32614 9.06464 9.19167 6.74966 11.4876 4.9163L12.0376 4.5038C14.7669 2.51194 17.9634 1.25701 21.3189 0.860053L22.2814 0.791303H24.1376H23.1751L22.2814 0.997553L21.3189 1.2038C17.0691 1.97328 13.1909 4.12057 10.2832 7.31403C7.37554 10.5075 5.6002 14.5695 5.23137 18.8726C4.80252 24.0927 6.43085 29.2738 9.76887 33.3101L9.90637 33.5163V33.5851L10.0439 33.7226C11.6237 35.6455 13.7954 36.9917 16.2204 37.5513C18.6454 38.1109 21.1874 37.8525 23.4501 36.8163C21.471 37.9247 19.2022 38.4063 16.9435 38.1976C14.6848 37.989 12.5426 37.0997 10.8001 35.6476V35.7163ZM13.5501 32.0038L13.3439 31.9351L13.2751 31.8663L12.7251 31.3163C10.894 29.3552 9.52794 27.007 8.72813 24.4459C7.92832 21.8848 7.71532 19.1765 8.10494 16.5218C8.49455 13.8672 9.47677 11.3343 10.9788 9.111C12.4808 6.88772 14.464 5.03109 16.7814 3.6788L17.9501 2.9913L18.3626 2.8538L18.9126 2.5788C20.3564 2.0288 21.8689 1.68505 23.3814 1.4788L24.2064 1.41005H24.8939L26.8189 1.4788C23.5843 1.46466 20.4084 2.34219 17.6399 4.01501C14.8714 5.68782 12.6175 8.09123 11.1257 10.9613C9.63381 13.8313 8.96174 17.0569 9.18326 20.284C9.40478 23.511 10.5113 26.6145 12.3814 29.2538L12.9314 29.9413L13.7564 30.9038C15.1946 32.5222 17.13 33.6167 19.2581 34.0149C21.3863 34.4132 23.5865 34.0927 25.5126 33.1038C21.9376 35.7163 16.7126 34.9601 13.5501 32.0038ZM15.6814 26.1601C16.3689 27.1226 17.1939 28.0163 18.0876 28.8413C19.2279 29.7607 20.5767 30.3858 22.0153 30.6616C23.4539 30.9373 24.9382 30.8552 26.3376 30.4226C25.1727 30.935 23.9085 31.1824 22.6363 31.1467C21.3641 31.111 20.1158 30.7932 18.9814 30.2163C17.8814 29.6663 16.7814 28.8413 15.9564 27.8788C14.4647 26.258 13.3346 24.3386 12.6412 22.2478C11.9479 20.157 11.7069 17.9427 11.9345 15.7518C12.162 13.5608 12.8528 11.4433 13.9611 9.53961C15.0693 7.63596 16.5697 5.9897 18.3626 4.71005L19.0501 4.29755L20.1501 3.61005L21.0439 3.19755C22.6939 2.51005 24.4126 2.09755 26.2001 2.0288H28.2626L29.1564 2.23505H27.5064C23.7171 2.49049 20.1389 4.07267 17.4001 6.7038C14.8723 9.22749 13.3145 12.5611 13.0002 16.1192C12.6858 19.6772 13.6351 23.2323 15.6814 26.1601Z" fill="black"/>
<path id="Vector_3" d="M17.0563 15.985L16.6438 15.9163C16.9875 15.9163 17.3313 15.9163 17.675 16.0538L17.0563 15.985Z" fill="black"/>
<path id="Vector_4" d="M36.3064 39.3602C36.5126 39.2227 36.9938 38.6727 37.2001 38.6039L38.0251 37.7789L38.7813 36.9539L39.5376 36.0602L40.1563 35.3039L40.8438 34.3414L41.1189 33.8602L41.3251 33.4477L41.8751 32.4852L42.3563 31.4539L42.7688 30.5602L43.0438 29.6664L43.3188 28.9789L43.6626 27.6039L43.9376 26.5039V26.2977C44.4785 23.3122 44.4038 20.2478 43.7182 17.2923C43.0325 14.3367 41.7502 11.5524 39.9501 9.11016L39.4688 8.56016L38.7813 7.66641L37.9563 6.91016L37.4063 6.36016L37.0626 6.08516L36.9251 6.01641L36.7876 5.87891L36.1688 5.39766L36.0313 5.32891L35.8938 5.19141L35.2063 4.77891L34.8626 4.64141L34.3813 4.36641L33.8313 4.09141L32.6626 3.67891L31.9751 3.54141L31.4938 3.40391L30.9438 3.26641L28.9501 3.12891C25.6214 3.2524 22.4689 4.65625 20.1501 7.04766C18.9813 8.28516 18.0876 9.79766 17.4001 11.3102L17.2626 11.7227L17.1251 12.2727L16.8501 13.1664V13.5789C16.7222 14.1454 16.6304 14.7195 16.5751 15.2977V15.9852C19.159 15.9976 21.6785 16.7926 23.8017 18.2653C25.9248 19.738 27.552 21.8194 28.4688 24.2352C29.5552 27.09 29.6067 30.2353 28.6144 33.1242C27.6222 36.0131 25.6489 38.4629 23.0376 40.0477C21.2061 41.1994 19.1196 41.8833 16.9616 42.0391C14.8037 42.195 12.6406 41.818 10.6626 40.9414C15.2201 43.8827 20.7227 44.9882 26.0626 44.0352C29.8438 43.3477 33.3501 41.7664 36.3751 39.3602H36.3064ZM34.5188 8.83516C36.6085 10.6847 38.2926 12.947 39.4649 15.4794C40.6373 18.0119 41.2725 20.7596 41.3307 23.5497C41.3888 26.3397 40.8685 29.1116 39.8027 31.6907C38.7368 34.2697 37.1484 36.6002 35.1376 38.5352L34.4501 39.2227L34.1063 39.4977L33.9001 39.6352L33.7626 39.7039L33.2813 40.1164L31.2188 41.4227L30.3938 41.9039C27.5751 43.2789 24.3438 43.9664 21.1126 43.8289C26.033 43.5709 30.6882 41.5184 34.1975 38.0598C37.7068 34.6012 39.8268 29.9763 40.1563 25.0602C40.4065 20.3723 38.9944 15.7466 36.1688 11.9977L35.6189 11.3102L35.4813 11.1039L35.4126 11.0352L35.3438 10.9664C33.7689 9.01643 31.589 7.64687 29.1487 7.07415C26.7084 6.50143 24.1469 6.75821 21.8688 7.80391C23.8488 6.6709 26.1274 6.16916 28.4002 6.36572C30.6729 6.56228 32.8315 7.44779 34.5876 8.90391L34.5188 8.83516ZM31.2876 12.0664L32.0438 12.7539C34.1484 14.7594 35.7278 17.2515 36.643 20.0109C37.5581 22.7702 37.7811 25.7122 37.2921 28.5779C36.8032 31.4436 35.6174 34.1452 33.839 36.445C32.0607 38.7447 29.7444 40.5722 27.0938 41.7664L26.6813 41.9039L26.5438 41.9727H26.4751L26.2688 42.1102L25.4438 42.3852C23.2438 43.0727 20.9063 43.3477 18.5688 43.0727C21.8432 43.0791 25.0545 42.1719 27.8415 40.4532C30.6285 38.7345 32.8809 36.2723 34.3452 33.3437C35.8096 30.415 36.4279 27.1358 36.1306 23.875C35.8334 20.6141 34.6323 17.5008 32.6626 14.8852L32.1813 14.3352L31.4938 13.5102C30.043 11.93 28.112 10.8718 25.9995 10.499C23.887 10.1262 21.7104 10.4596 19.8063 11.4477C23.2438 9.04141 28.1251 9.52266 31.3563 12.1352L31.2876 12.0664ZM22.6938 41.2852L23.3813 41.0102L24.0001 40.6664L24.8251 40.2539L25.5126 39.7727L26.3376 39.2227C29.359 36.9327 31.4102 33.5915 32.0851 29.8609C32.7599 26.1302 32.0091 22.2822 29.9813 19.0789L29.5688 18.3914L29.1563 17.9102L28.6751 17.2914C27.5745 15.8388 26.0561 14.7574 24.3235 14.1921C22.5909 13.6269 20.7269 13.6048 18.9813 14.1289C20.3979 13.5132 21.9524 13.2842 23.4862 13.4654C25.0201 13.6465 26.4785 14.2313 27.7126 15.1602C29.8996 16.898 31.5753 19.1956 32.5616 21.8091C33.5479 24.4225 33.8082 27.2543 33.3147 30.0038C32.8212 32.7533 31.5924 35.3178 29.7587 37.4251C27.9251 39.5324 25.555 41.1039 22.9001 41.9727C20.74 42.6297 18.4559 42.771 16.2313 42.3852C18.4313 42.4539 20.6313 42.1102 22.6938 41.2852Z" fill="black"/>
</g>
</g>
</g>
</g>
<defs>
<clipPath id="clip0_1_5943">
<rect width="112.062" height="44" fill="white" transform="translate(0.96875 0.310059)"/>
</clipPath>
</defs>
</svg>
