<svg width="519" height="268" viewBox="0 0 519 268" fill="none" xmlns="http://www.w3.org/2000/svg">
<g clip-path="url(#clip0_1_11686)">
<path opacity="0.3" d="M257.383 133.63V0.433472" stroke="#161616" stroke-width="1.17873"/>
<path opacity="0.3" d="M359.8 133.63V80.9678C359.8 78.1542 360.918 75.4559 362.907 73.4664C364.897 71.4769 367.595 70.3592 370.409 70.3592C373.222 70.3592 375.921 69.2416 377.91 67.2521C379.9 65.2626 381.017 62.5642 381.017 59.7507V0.433472" stroke="#D44B45" stroke-width="1.17873"/>
<path opacity="0.3" d="M460.485 133.63V96.8807C460.485 82.2338 472.358 70.3592 487.006 70.3592C501.653 70.3592 513.528 58.4859 513.528 43.8378V0.433472" stroke="#E4761B" stroke-width="1.17873"/>
<path opacity="0.3" d="M57.746 133.63V96.8807C57.746 82.2338 45.8726 70.3592 31.2245 70.3592C16.5776 70.3592 4.70312 58.4859 4.70312 43.8378V0.433472" stroke="#2844E5" stroke-width="1.17873"/>
<path opacity="0.3" d="M158.431 133.63V80.9678C158.431 78.1542 157.313 75.4559 155.324 73.4664C153.334 71.4769 150.636 70.3592 147.822 70.3592C145.009 70.3592 142.31 69.2416 140.321 67.2521C138.331 65.2626 137.214 62.5642 137.214 59.7507V0.433472" stroke="#1F51F4" stroke-width="1.17873"/>
<path opacity="0.3" d="M257.383 133.63V266.826" stroke="#161616" stroke-width="1.17873"/>
<path opacity="0.3" d="M359.8 133.63V186.292C359.8 189.106 360.918 191.804 362.907 193.793C364.897 195.783 367.595 196.901 370.409 196.901C373.222 196.901 375.921 198.018 377.91 200.008C379.9 201.997 381.017 204.696 381.017 207.509V266.826" stroke="#D44B45" stroke-width="1.17873"/>
<path opacity="0.3" d="M460.485 133.63V170.379C460.485 185.026 472.358 196.901 487.006 196.901C501.653 196.901 513.528 208.774 513.528 223.422V266.826" stroke="#E4761B" stroke-width="1.17873"/>
<path opacity="0.3" d="M57.746 133.63V170.379C57.746 185.026 45.8726 196.901 31.2245 196.901C16.5776 196.901 4.70312 208.774 4.70312 223.422V266.826" stroke="#2844E5" stroke-width="1.17873"/>
<path opacity="0.3" d="M158.431 133.63V186.292C158.431 189.106 157.313 191.804 155.324 193.793C153.334 195.783 150.636 196.901 147.822 196.901C145.009 196.901 142.31 198.018 140.321 200.008C138.331 201.997 137.214 204.696 137.214 207.509V266.826" stroke="#1F51F4" stroke-width="1.17873"/>
<path d="M50.0912 88.4386H63.8824C71.418 88.4386 77.0287 88.4386 81.4478 88.8582C85.8562 89.2755 89.02 90.1053 91.6756 91.7261C94.6863 93.5625 97.2197 96.0854 99.0686 99.0884C100.695 101.732 101.529 104.881 101.948 109.273C102.368 113.672 102.368 119.259 102.368 126.763V140.497C102.368 148.001 102.368 153.588 101.948 157.988C101.529 162.379 100.695 165.528 99.0686 168.171C97.2199 171.175 94.6865 173.698 91.6756 175.534C89.02 177.154 85.8574 177.984 81.4478 178.402C77.0276 178.82 71.418 178.821 63.8824 178.821H50.0912C42.5556 178.821 36.946 178.82 32.5282 178.402C28.1174 177.984 24.9548 177.154 22.2991 175.534C19.2882 173.698 16.7548 171.175 14.9062 168.171C13.2795 165.528 12.4461 162.379 12.0265 157.988C11.6069 153.588 11.6057 148.001 11.6057 140.497V126.763C11.6057 119.259 11.6057 113.672 12.0265 109.271C12.4461 104.881 13.2783 101.732 14.9062 99.0884C16.755 96.0853 19.2884 93.5624 22.2991 91.7261C24.9548 90.1053 28.1174 89.2755 32.527 88.8582C36.946 88.4398 42.5556 88.4386 50.0912 88.4386Z" fill="url(#paint0_linear_1_11686)" stroke="#EBEBEB" stroke-width="1.17873"/>
<path d="M45.5991 158.428V136.25L67.092 158.428H79.0479V157.852L54.3287 132.603L77.1407 108.643V108.356H65.1094L45.5991 129.528V108.356H35.917V158.428H45.5991Z" fill="white"/>
<mask id="mask0_1_11686" style="mask-type:luminance" maskUnits="userSpaceOnUse" x="112" y="87" width="93" height="93">
<path d="M183.112 87.6594H133.606C121.888 87.6594 112.388 97.1587 112.388 108.877V158.383C112.388 170.101 121.888 179.6 133.606 179.6H183.112C194.83 179.6 204.329 170.101 204.329 158.383V108.877C204.329 97.1587 194.83 87.6594 183.112 87.6594Z" fill="white"/>
</mask>
<g mask="url(#mask0_1_11686)">
<path d="M112.388 87.6594V179.6H204.329V87.6594H112.388Z" fill="#3A76F0"/>
<path d="M150.771 102.95L151.481 105.824C148.685 106.515 146.009 107.622 143.543 109.11L142.026 106.569C144.74 104.925 147.689 103.705 150.771 102.95ZM165.945 102.95L165.235 105.824C168.031 106.515 170.707 107.622 173.173 109.11L174.709 106.569C171.987 104.926 169.032 103.706 165.945 102.95ZM131.298 117.289C129.655 120.007 128.434 122.959 127.679 126.044L130.551 126.752C131.242 123.957 132.35 121.281 133.838 118.816L131.298 117.289ZM129.717 133.63C129.717 132.193 129.824 130.758 130.04 129.338L127.113 128.889C126.637 132.028 126.637 135.222 127.113 138.361L130.04 137.922C129.825 136.501 129.717 135.066 129.717 133.63ZM174.69 160.683L173.173 158.151C170.711 159.64 168.038 160.748 165.245 161.437L165.955 164.31C169.033 163.548 171.978 162.325 174.69 160.683ZM187.001 133.63C187 135.067 186.892 136.501 186.677 137.922L189.605 138.361C190.08 135.222 190.08 132.029 189.605 128.889L186.677 129.338C186.892 130.758 187.001 132.193 187.001 133.63ZM189.039 141.208L186.165 140.498C185.476 143.297 184.368 145.976 182.879 148.444L185.42 149.971C187.064 147.25 188.284 144.295 189.039 141.208ZM162.651 161.949C159.806 162.379 156.912 162.379 154.067 161.949L153.626 164.876C156.763 165.352 159.954 165.352 163.09 164.876L162.651 161.949ZM181.416 150.618C179.709 152.932 177.663 154.975 175.345 156.678L177.105 159.067C179.657 157.188 181.915 154.939 183.804 152.395L181.416 150.618ZM175.345 110.573C177.663 112.279 179.709 114.326 181.416 116.643L183.804 114.864C181.922 112.318 179.67 110.067 177.124 108.185L175.345 110.573ZM135.302 116.643C137.008 114.326 139.054 112.279 141.371 110.573L139.593 108.185C137.047 110.066 134.795 112.318 132.914 114.864L135.302 116.643ZM185.42 117.289L182.879 118.816C184.368 121.277 185.476 123.95 186.165 126.744L189.039 126.034C188.282 122.952 187.062 120.005 185.42 117.289ZM154.067 105.311C156.912 104.88 159.806 104.88 162.651 105.311L163.09 102.384C159.953 101.908 156.763 101.908 153.626 102.384L154.067 105.311ZM136.819 159.857L130.705 161.275L132.132 155.161L129.25 154.487L127.823 160.602C127.733 160.981 127.719 161.374 127.782 161.758C127.845 162.142 127.982 162.511 128.187 162.842C128.392 163.173 128.661 163.46 128.977 163.687C129.293 163.915 129.651 164.077 130.03 164.166C130.475 164.265 130.934 164.265 131.378 164.166L137.492 162.756L136.819 159.857ZM129.861 151.847L132.752 152.512L133.739 148.274C132.297 145.855 131.222 143.234 130.551 140.498L127.679 141.208C128.325 143.827 129.302 146.352 130.588 148.723L129.861 151.847ZM143.687 158.258L139.45 159.246L140.123 162.137L143.238 161.41C145.608 162.699 148.134 163.677 150.754 164.319L151.463 161.446C148.736 160.766 146.125 159.686 143.714 158.241L143.687 158.258ZM158.359 107.95C144.173 107.959 132.688 119.462 132.688 133.639C132.697 138.468 134.063 143.197 136.63 147.287L134.161 157.827L144.693 155.359C156.698 162.909 172.554 159.308 180.105 147.314C187.656 135.318 184.065 119.462 172.069 111.902C167.962 109.32 163.21 107.949 158.359 107.95Z" fill="white"/>
</g>
<path d="M284.009 87.9918H234.785C223.173 87.9918 213.759 97.4056 213.759 109.018V158.242C213.759 169.854 223.173 179.268 234.785 179.268H284.009C295.621 179.268 305.035 169.854 305.035 158.242V109.018C305.035 97.4056 295.621 87.9918 284.009 87.9918Z" fill="#161616"/>
<path d="M284.009 87.4025H234.785C222.847 87.4025 213.17 97.0801 213.17 109.018V158.242C213.17 170.18 222.847 179.857 234.785 179.857H284.009C295.947 179.857 305.624 170.18 305.624 158.242V109.018C305.624 97.0801 295.947 87.4025 284.009 87.4025Z" stroke="black" stroke-opacity="0.08" stroke-width="1.17873"/>
<path d="M227.663 114.322L226.725 117.281H231.078L228.916 124.14L232.388 125.079L234.806 117.282H238.563L239.501 114.322H227.663ZM240.839 124.88C241.266 124.852 241.693 124.852 242.12 124.852C242.831 124.852 243.884 124.908 243.884 125.876C243.884 126.559 243.628 127.412 243.429 128.067C243.059 129.404 242.604 130.742 242.519 132.108H246.417C246.303 129.917 247.669 128.01 247.669 125.848C247.669 124.396 246.56 123.798 245.278 123.571L245.648 123.514C248.437 123.144 250.003 120.924 250.003 118.192C250.003 115.147 247.47 114.294 244.852 114.294H240.384C239.103 118.25 237.909 122.233 236.656 126.217L240.099 127.128L240.839 124.88ZM243.258 117.083H244.51C245.449 117.083 246.36 117.31 246.36 118.419C246.36 119.786 245.393 122.063 243.771 122.063H241.693L243.258 117.083ZM258.454 125.506H254.812C256.12 123.03 257.373 120.554 258.482 117.993L255.893 117.196L247.498 132.136H251.425L253.446 128.323H258.255L258.112 132.136H261.897L262.182 119.103L258.939 118.107C258.622 120.561 258.46 123.032 258.454 125.506ZM269.296 132.136H278.175L279.142 129.233H274.077L275.955 123.315L272.427 122.233L269.296 132.136ZM259.166 136.775C259.166 134.072 257.088 133.246 254.698 133.246H249.747L245.079 147.816L250.999 151.06C254.556 150.918 257.031 148.3 257.031 144.686C257.031 143.292 256.178 142.21 254.84 141.84C257.486 141.242 259.166 139.564 259.166 136.775ZM252.677 147.247C251.966 148.3 251.226 148.385 250.031 148.385H248.494L250.174 143.149C251.397 143.206 253.588 142.893 253.588 144.715C253.617 145.511 253.133 146.592 252.677 147.247ZM252.365 140.588H250.97L252.45 135.978C253.56 136.034 255.665 135.665 255.665 137.372C255.665 139.421 254.385 140.588 252.365 140.588ZM266.735 120.526L262.979 133.104L259.649 143.32L263.633 143.007L266.507 133.929L270.406 121.635C269.865 121.494 267.702 120.782 266.735 120.526ZM275.785 136.234H279.57L280.508 133.303H268.585L267.646 136.234H272L269.951 142.779L273.765 142.523L275.785 136.234ZM290.241 138.909C290.468 138.368 290.81 137.173 290.81 136.604C290.81 133.843 288.135 133.104 285.858 133.104C281.959 133.104 279.626 135.835 279.626 139.592C279.626 140.133 280.138 141.499 281.134 141.954L285.83 141.64C285.033 140.958 283.611 139.393 283.611 138.539C283.611 137.372 284.265 135.865 285.603 135.865C286.513 135.865 287.054 136.12 287.054 137.088C287.054 137.714 286.74 138.312 286.569 138.909H290.241ZM242.831 133.36C241.067 133.36 240.811 134.669 240.356 136.064C240.213 136.575 239.929 137.173 239.929 137.686C239.929 138.71 240.839 138.881 241.664 138.881C242.689 138.881 243.23 138.539 243.572 137.6C243.827 136.946 244.453 135.153 244.453 134.499C244.481 133.616 243.572 133.36 242.831 133.36ZM243.316 134.64C243.316 134.869 243.059 135.608 242.974 135.865L242.575 137.088C242.405 137.543 242.234 138.084 241.636 138.084C241.294 138.084 241.095 137.885 241.095 137.543C241.095 137.088 241.437 136.263 241.608 135.807C241.75 135.352 241.95 134.412 242.461 134.242C242.575 134.213 242.689 134.185 242.831 134.185C243.059 134.185 243.344 134.413 243.316 134.64ZM248.125 134.271L248.409 133.388H245.592L243.913 138.852H245.079L245.819 136.491H247.356L247.64 135.608H246.103L246.502 134.271H248.125Z" fill="#DAE2EB"/>
<path d="M277.719 117.68L276.268 122.404L272.739 121.323L274.532 115.602L277.719 117.68ZM281.164 149.154C282.728 149.154 284.293 147.446 284.122 145.966C283.952 144.6 283.184 143.604 281.874 142.836L286.456 142.523C287.309 143.462 287.736 143.946 287.794 145.454C287.85 146.649 287.196 148.158 286.627 149.182C285.346 151.458 283.325 151.943 280.85 151.943C278.488 151.943 275.984 151.202 275.984 148.357C275.984 147.503 276.24 146.649 276.554 145.852H280.423C280.11 146.365 279.911 147.133 279.882 147.703C279.882 148.47 280.309 149.154 281.164 149.154ZM267.788 149.723L269.694 143.747L273.536 143.491L271.971 148.5L267.788 149.723ZM249.945 151.544L243.514 152.454L244.767 148.699L249.945 151.544ZM262.296 118.192L259.223 117.282C258.369 117.025 256.206 116.371 256.206 116.343L256.947 115.005L262.353 113.924L262.296 118.192ZM228.688 125.051L232.16 125.989L230.538 131.283L227.692 128.295L228.688 125.051ZM239.871 128.038L238.534 132.307L234.778 132.279C235.148 131.112 236.087 128.267 236.457 127.1L239.871 128.038Z" fill="#8294A3"/>
<path d="M384.714 87.9918H335.49C323.878 87.9918 314.464 97.4056 314.464 109.018V158.242C314.464 169.854 323.878 179.268 335.49 179.268H384.714C396.326 179.268 405.74 169.854 405.74 158.242V109.018C405.74 97.4056 396.326 87.9918 384.714 87.9918Z" fill="#D44B45"/>
<path d="M384.714 87.4025H335.49C323.552 87.4025 313.875 97.0801 313.875 109.018V158.242C313.875 170.18 323.552 179.857 335.49 179.857H384.714C396.652 179.857 406.329 170.18 406.329 158.242V109.018C406.329 97.0801 396.652 87.4025 384.714 87.4025Z" stroke="black" stroke-opacity="0.08" stroke-width="1.17873"/>
<path d="M383.099 111.566H339.814C338.945 111.566 338.694 112.745 339.486 113.092L361.543 122.847C361.833 122.981 362.027 123.271 362.027 123.58V143.108C362.027 143.9 363.05 144.209 363.494 143.552L383.775 112.803C384.123 112.281 383.737 111.566 383.099 111.566Z" fill="white"/>
<path d="M336.125 156.687H379.411C380.279 156.687 380.53 155.508 379.738 155.161L357.681 145.407C357.539 145.342 357.419 145.239 357.333 145.109C357.248 144.979 357.201 144.828 357.197 144.672V125.145C357.197 124.353 356.174 124.044 355.73 124.701L335.449 155.451C335.101 155.972 335.488 156.687 336.125 156.687Z" fill="white"/>
<path d="M485.421 87.9918H436.197C424.585 87.9918 415.171 97.4056 415.171 109.018V158.242C415.171 169.854 424.585 179.268 436.197 179.268H485.421C497.033 179.268 506.447 169.854 506.447 158.242V109.018C506.447 97.4056 497.033 87.9918 485.421 87.9918Z" fill="white"/>
<path d="M485.421 87.4025H436.197C424.259 87.4025 414.582 97.0801 414.582 109.018V158.242C414.582 170.18 424.259 179.857 436.197 179.857H485.421C497.359 179.857 507.036 170.18 507.036 158.242V109.018C507.036 97.0801 497.359 87.4025 485.421 87.4025Z" stroke="black" stroke-opacity="0.08" stroke-width="1.17873"/>
<path d="M460.854 108.03L477.945 157.537L460.854 148.417L443.762 157.537L460.854 108.03Z" fill="#FF4800"/>
</g>
<defs>
<linearGradient id="paint0_linear_1_11686" x1="55.2187" y1="93.7429" x2="88.8125" y2="178.022" gradientUnits="userSpaceOnUse">
<stop stop-color="#00BFF7"/>
<stop offset="1" stop-color="#7964F9"/>
</linearGradient>
<clipPath id="clip0_1_11686">
<rect width="518.641" height="267" fill="white" transform="translate(0 0.129883)"/>
</clipPath>
</defs>
</svg>
