<svg width="48" height="49" viewBox="0 0 48 49" fill="none" xmlns="http://www.w3.org/2000/svg">
<g id="2db79f8d66fe8114b85e0182713dff2bd5671985-28x28.svg">
<g id="Group" filter="url(#filter0_d_1_5959)">
<path id="Vector" d="M35.3824 13.5089C33.1972 12.5402 30.8538 11.8265 28.4037 11.4177C28.3592 11.4098 28.3146 11.4295 28.2916 11.469C27.9902 11.9868 27.6563 12.6624 27.4226 13.1934C24.7873 12.8123 22.1656 12.8123 19.5844 13.1934C19.3506 12.6506 19.0046 11.9868 18.7019 11.469C18.6789 11.4309 18.6344 11.4112 18.5896 11.4177C16.1409 11.8252 13.7975 12.5389 11.6109 13.5089C11.592 13.5168 11.5758 13.5299 11.565 13.547C7.12015 19.9624 5.90251 26.22 6.49984 32.4002C6.50255 32.4304 6.52012 32.4594 6.54444 32.4777C9.47704 34.5583 12.3177 35.8214 15.1057 36.6587C15.1503 36.6719 15.1976 36.6561 15.226 36.6206C15.8855 35.7504 16.4734 34.8331 16.9774 33.8683C17.0072 33.8118 16.9788 33.7447 16.918 33.7224C15.9855 33.3806 15.0976 32.964 14.2435 32.4909C14.1759 32.4527 14.1705 32.3594 14.2327 32.3147C14.4124 32.1846 14.5922 32.0491 14.7638 31.9125C14.7949 31.8876 14.8381 31.8823 14.8746 31.8981C20.4858 34.373 26.5604 34.373 32.1052 31.8981C32.1417 31.881 32.1849 31.8863 32.2173 31.9111C32.3891 32.0479 32.5688 32.1846 32.75 32.3147C32.812 32.3594 32.8081 32.4527 32.7404 32.4909C31.8863 32.9731 30.9985 33.3806 30.0645 33.7211C30.0038 33.7435 29.9768 33.8118 30.0066 33.8683C30.5214 34.8318 31.1092 35.7491 31.7565 36.6192C31.7836 36.6561 31.8323 36.6719 31.8769 36.6587C34.6784 35.8214 37.5191 34.5583 40.4516 32.4777C40.4773 32.4594 40.4936 32.4318 40.4963 32.4014C41.2112 25.2566 39.2989 19.0502 35.427 13.5483C35.4176 13.5299 35.4014 13.5168 35.3824 13.5089ZM17.8153 28.6372C16.126 28.6372 14.7341 27.1387 14.7341 25.2986C14.7341 23.4585 16.099 21.9602 17.8153 21.9602C19.5452 21.9602 20.9236 23.4717 20.8965 25.2986C20.8965 27.1387 19.5316 28.6372 17.8153 28.6372ZM29.2077 28.6372C27.5185 28.6372 26.1266 27.1387 26.1266 25.2986C26.1266 23.4585 27.4916 21.9602 29.2077 21.9602C30.9376 21.9602 32.3161 23.4717 32.2892 25.2986C32.2892 27.1387 30.9376 28.6372 29.2077 28.6372Z" fill="black" fill-opacity="0.1"/>
</g>
</g>
<defs>
<filter id="filter0_d_1_5959" x="6.35815" y="11.416" width="35.9999" height="26.9616" filterUnits="userSpaceOnUse" color-interpolation-filters="sRGB">
<feFlood flood-opacity="0" result="BackgroundImageFix"/>
<feColorMatrix in="SourceAlpha" type="matrix" values="0 0 0 0 0 0 0 0 0 0 0 0 0 0 0 0 0 0 127 0" result="hardAlpha"/>
<feOffset dx="1.71429" dy="1.71429"/>
<feComposite in2="hardAlpha" operator="out"/>
<feColorMatrix type="matrix" values="0 0 0 0 0 0 0 0 0 0 0 0 0 0 0 0 0 0 0.1 0"/>
<feBlend mode="normal" in2="BackgroundImageFix" result="effect1_dropShadow_1_5959"/>
<feBlend mode="normal" in="SourceGraphic" in2="effect1_dropShadow_1_5959" result="shape"/>
</filter>
</defs>
</svg>
