<svg width="56" height="57" viewBox="0 0 56 57" fill="none" xmlns="http://www.w3.org/2000/svg">
<g id="Clip path group">
<mask id="mask0_1_11837" style="mask-type:luminance" maskUnits="userSpaceOnUse" x="0" y="0" width="57" height="57">
<g id="drive_svg__a">
<path id="Vector" d="M43.9155 0.840088H12.2256C5.51255 0.840088 0.0705566 6.28208 0.0705566 12.9951V44.685C0.0705566 51.3981 5.51255 56.8401 12.2256 56.8401H43.9155C50.6286 56.8401 56.0706 51.3981 56.0706 44.685V12.9951C56.0706 6.28208 50.6286 0.840088 43.9155 0.840088Z" fill="white"/>
</g>
</mask>
<g mask="url(#mask0_1_11837)">
<g id="Group">
<path id="Vector_2" d="M0.0705296 12.9951C0.0705296 6.28207 5.51251 0.840088 12.2256 0.840088H43.9153C50.6283 0.840088 56.0703 6.28207 56.0703 12.9951V44.6848C56.0703 51.3979 50.6283 56.8401 43.9153 56.8401H12.2254C5.51251 56.8401 0.0703125 51.3979 0.0703125 44.685L0.0705296 12.9951Z" fill="#00A05E"/>
<g id="Group_2">
<path id="Vector_3" d="M0.0705566 41.9651H55.4871" stroke="#00804B" stroke-width="1.16667" stroke-linecap="round"/>
</g>
<path id="Vector_4" d="M7.39612 23.5901C7.39612 22.766 6.72801 22.0979 5.90387 22.0979C5.07972 22.0979 4.41162 22.766 4.41162 23.5901V34.6734C4.41162 35.4975 5.07972 36.1656 5.90387 36.1656C6.72801 36.1656 7.39612 35.4975 7.39612 34.6734V23.5901Z" stroke="#19C77F" stroke-width="0.651163"/>
<path id="Vector_5" d="M4.7373 23.5903C4.7373 23.2808 4.86022 22.9841 5.07901 22.7653C5.29781 22.5465 5.59455 22.4236 5.90397 22.4236C6.21339 22.4236 6.51014 22.5465 6.72893 22.7653C6.94772 22.9841 7.07064 23.2808 7.07064 23.5903V34.6735C7.07064 34.9829 6.94772 35.2796 6.72893 35.4984C6.51014 35.7172 6.21339 35.8401 5.90397 35.8401C5.59455 35.8401 5.29781 35.7172 5.07901 35.4984C4.86022 35.2796 4.7373 34.9829 4.7373 34.6735V23.5903Z" fill="black" fill-opacity="0.5"/>
<g id="Mask group">
<mask id="mask1_1_11837" style="mask-type:luminance" maskUnits="userSpaceOnUse" x="4" y="22" width="4" height="14">
<g id="Group_3">
<path id="Vector_6" d="M4.7373 23.5903C4.7373 23.2808 4.86022 22.9841 5.07901 22.7653C5.29781 22.5465 5.59455 22.4236 5.90397 22.4236C6.21339 22.4236 6.51014 22.5465 6.72893 22.7653C6.94772 22.9841 7.07064 23.2808 7.07064 23.5903V34.6735C7.07064 34.9829 6.94772 35.2796 6.72893 35.4984C6.51014 35.7172 6.21339 35.8401 5.90397 35.8401C5.59455 35.8401 5.29781 35.7172 5.07901 35.4984C4.86022 35.2796 4.7373 34.9829 4.7373 34.6735V23.5903Z" fill="white"/>
</g>
</mask>
<g mask="url(#mask1_1_11837)">
<path id="Vector_7" d="M4.30322 23.5903C4.30322 23.1657 4.47188 22.7586 4.77208 22.4584C5.07228 22.1582 5.47945 21.9895 5.904 21.9895C6.32855 21.9895 6.73571 22.1582 7.03592 22.4584C7.33612 22.7586 7.50477 23.1657 7.50477 23.5903H6.63656C6.63656 23.396 6.55938 23.2097 6.42199 23.0723C6.28461 22.9349 6.09828 22.8577 5.904 22.8577C5.70971 22.8577 5.52338 22.9349 5.386 23.0723C5.24862 23.2097 5.17144 23.396 5.17144 23.5903H4.30322ZM7.50477 34.6735C7.50477 35.0981 7.33612 35.5052 7.03592 35.8054C6.73571 36.1056 6.32855 36.2743 5.904 36.2743C5.47945 36.2743 5.07228 36.1056 4.77208 35.8054C4.47188 35.5052 4.30322 35.0981 4.30322 34.6735H5.17144C5.17144 34.8678 5.24862 35.0541 5.386 35.1915C5.52338 35.3289 5.70971 35.4061 5.904 35.4061C6.09828 35.4061 6.28461 35.3289 6.42199 35.1915C6.55938 35.0541 6.63656 34.8678 6.63656 34.6735H7.50477ZM5.904 36.2743C5.47945 36.2743 5.07228 36.1056 4.77208 35.8054C4.47188 35.5052 4.30322 35.0981 4.30322 34.6735V23.5903C4.30322 23.1657 4.47188 22.7586 4.77208 22.4584C5.07228 22.1582 5.47945 21.9895 5.904 21.9895V22.8577C5.70971 22.8577 5.52338 22.9349 5.386 23.0723C5.24862 23.2097 5.17144 23.396 5.17144 23.5903V34.6735C5.17144 34.8678 5.24862 35.0541 5.386 35.1915C5.52338 35.3289 5.70971 35.4061 5.904 35.4061V36.2743ZM5.904 21.9895C6.11421 21.9895 6.32237 22.0309 6.51659 22.1114C6.7108 22.1918 6.88727 22.3097 7.03592 22.4584C7.18456 22.607 7.30247 22.7835 7.38292 22.9777C7.46337 23.1719 7.50477 23.3801 7.50477 23.5903V34.6735C7.50477 35.0981 7.33612 35.5052 7.03592 35.8054C6.73571 36.1056 6.32855 36.2743 5.904 36.2743V35.4061C6.09828 35.4061 6.28461 35.3289 6.42199 35.1915C6.55938 35.0541 6.63656 34.8678 6.63656 34.6735V23.5903C6.63656 23.396 6.55938 23.2097 6.42199 23.0723C6.28461 22.9349 6.09828 22.8577 5.904 22.8577V21.9895Z" fill="#1B271D"/>
</g>
</g>
<path id="Vector_8" d="M12.1171 23.5901C12.1171 22.766 11.449 22.0979 10.6248 22.0979C9.80067 22.0979 9.13257 22.766 9.13257 23.5901V34.6734C9.13257 35.4975 9.80067 36.1656 10.6248 36.1656C11.449 36.1656 12.1171 35.4975 12.1171 34.6734V23.5901Z" stroke="#19C77F" stroke-width="0.651163"/>
<path id="Vector_9" d="M9.45801 23.5903C9.45801 23.2808 9.58092 22.9841 9.79972 22.7653C10.0185 22.5465 10.3153 22.4236 10.6247 22.4236C10.9341 22.4236 11.2308 22.5465 11.4496 22.7653C11.6684 22.9841 11.7913 23.2808 11.7913 23.5903V34.6735C11.7913 34.9829 11.6684 35.2796 11.4496 35.4984C11.2308 35.7172 10.9341 35.8401 10.6247 35.8401C10.3153 35.8401 10.0185 35.7172 9.79972 35.4984C9.58092 35.2796 9.45801 34.9829 9.45801 34.6735V23.5903Z" fill="black" fill-opacity="0.5"/>
<g id="Mask group_2">
<mask id="mask2_1_11837" style="mask-type:luminance" maskUnits="userSpaceOnUse" x="9" y="22" width="3" height="14">
<g id="Group_4">
<path id="Vector_10" d="M9.45801 23.5903C9.45801 23.2808 9.58092 22.9841 9.79972 22.7653C10.0185 22.5465 10.3153 22.4236 10.6247 22.4236C10.9341 22.4236 11.2308 22.5465 11.4496 22.7653C11.6684 22.9841 11.7913 23.2808 11.7913 23.5903V34.6735C11.7913 34.9829 11.6684 35.2796 11.4496 35.4984C11.2308 35.7172 10.9341 35.8401 10.6247 35.8401C10.3153 35.8401 10.0185 35.7172 9.79972 35.4984C9.58092 35.2796 9.45801 34.9829 9.45801 34.6735V23.5903Z" fill="white"/>
</g>
</mask>
<g mask="url(#mask2_1_11837)">
<path id="Vector_11" d="M9.02393 23.5903C9.02393 23.1657 9.19258 22.7586 9.49278 22.4584C9.79299 22.1582 10.2001 21.9895 10.6247 21.9895C11.0493 21.9895 11.4564 22.1582 11.7566 22.4584C12.0568 22.7586 12.2255 23.1657 12.2255 23.5903H11.3573C11.3573 23.396 11.2801 23.2097 11.1427 23.0723C11.0053 22.9349 10.819 22.8577 10.6247 22.8577C10.4304 22.8577 10.2441 22.9349 10.1067 23.0723C9.96932 23.2097 9.89214 23.396 9.89214 23.5903H9.02393ZM12.2255 34.6735C12.2255 35.0981 12.0568 35.5052 11.7566 35.8054C11.4564 36.1056 11.0493 36.2743 10.6247 36.2743C10.2001 36.2743 9.79299 36.1056 9.49278 35.8054C9.19258 35.5052 9.02393 35.0981 9.02393 34.6735H9.89214C9.89214 34.8678 9.96932 35.0541 10.1067 35.1915C10.2441 35.3289 10.4304 35.4061 10.6247 35.4061C10.819 35.4061 11.0053 35.3289 11.1427 35.1915C11.2801 35.0541 11.3573 34.8678 11.3573 34.6735H12.2255ZM10.6247 36.2743C10.2001 36.2743 9.79299 36.1056 9.49278 35.8054C9.19258 35.5052 9.02393 35.0981 9.02393 34.6735V23.5903C9.02393 23.1657 9.19258 22.7586 9.49278 22.4584C9.79299 22.1582 10.2001 21.9895 10.6247 21.9895V22.8577C10.4304 22.8577 10.2441 22.9349 10.1067 23.0723C9.96932 23.2097 9.89214 23.396 9.89214 23.5903V34.6735C9.89214 34.8678 9.96932 35.0541 10.1067 35.1915C10.2441 35.3289 10.4304 35.4061 10.6247 35.4061V36.2743ZM10.6247 21.9895C11.0493 21.9895 11.4564 22.1582 11.7566 22.4584C12.0568 22.7586 12.2255 23.1657 12.2255 23.5903V34.6735C12.2255 35.0981 12.0568 35.5052 11.7566 35.8054C11.4564 36.1056 11.0493 36.2743 10.6247 36.2743V35.4061C10.819 35.4061 11.0053 35.3289 11.1427 35.1915C11.2801 35.0541 11.3573 34.8678 11.3573 34.6735V23.5903C11.3573 23.396 11.2801 23.2097 11.1427 23.0723C11.0053 22.9349 10.819 22.8577 10.6247 22.8577V21.9895Z" fill="#1B271D"/>
</g>
</g>
<path id="Vector_12" d="M16.838 23.5901C16.838 22.766 16.1699 22.0979 15.3458 22.0979C14.5216 22.0979 13.8535 22.766 13.8535 23.5901V34.6734C13.8535 35.4975 14.5216 36.1656 15.3458 36.1656C16.1699 36.1656 16.838 35.4975 16.838 34.6734V23.5901Z" stroke="#19C77F" stroke-width="0.651163"/>
<path id="Vector_13" d="M14.179 23.5903C14.179 23.2808 14.3019 22.9841 14.5207 22.7653C14.7395 22.5465 15.0362 22.4236 15.3456 22.4236C15.655 22.4236 15.9518 22.5465 16.1706 22.7653C16.3894 22.9841 16.5123 23.2808 16.5123 23.5903V34.6735C16.5123 34.9829 16.3894 35.2796 16.1706 35.4984C15.9518 35.7172 15.655 35.8401 15.3456 35.8401C15.0362 35.8401 14.7395 35.7172 14.5207 35.4984C14.3019 35.2796 14.179 34.9829 14.179 34.6735V23.5903Z" fill="black" fill-opacity="0.5"/>
<g id="Mask group_3">
<mask id="mask3_1_11837" style="mask-type:luminance" maskUnits="userSpaceOnUse" x="14" y="22" width="3" height="14">
<g id="Group_5">
<path id="Vector_14" d="M14.179 23.5903C14.179 23.2808 14.3019 22.9841 14.5207 22.7653C14.7395 22.5465 15.0362 22.4236 15.3456 22.4236C15.655 22.4236 15.9518 22.5465 16.1706 22.7653C16.3894 22.9841 16.5123 23.2808 16.5123 23.5903V34.6735C16.5123 34.9829 16.3894 35.2796 16.1706 35.4984C15.9518 35.7172 15.655 35.8401 15.3456 35.8401C15.0362 35.8401 14.7395 35.7172 14.5207 35.4984C14.3019 35.2796 14.179 34.9829 14.179 34.6735V23.5903Z" fill="white"/>
</g>
</mask>
<g mask="url(#mask3_1_11837)">
<path id="Vector_15" d="M13.7449 23.5903C13.7449 23.1657 13.9135 22.7586 14.2137 22.4584C14.5139 22.1582 14.9211 21.9895 15.3456 21.9895C15.7702 21.9895 16.1774 22.1582 16.4776 22.4584C16.7778 22.7586 16.9464 23.1657 16.9464 23.5903H16.0782C16.0782 23.396 16.001 23.2097 15.8636 23.0723C15.7263 22.9349 15.5399 22.8577 15.3456 22.8577C15.1514 22.8577 14.965 22.9349 14.8277 23.0723C14.6903 23.2097 14.6131 23.396 14.6131 23.5903H13.7449ZM16.9464 34.6735C16.9464 35.0981 16.7778 35.5052 16.4776 35.8054C16.1774 36.1056 15.7702 36.2743 15.3456 36.2743C14.9211 36.2743 14.5139 36.1056 14.2137 35.8054C13.9135 35.5052 13.7449 35.0981 13.7449 34.6735H14.6131C14.6131 34.8678 14.6903 35.0541 14.8277 35.1915C14.965 35.3289 15.1514 35.4061 15.3456 35.4061C15.5399 35.4061 15.7263 35.3289 15.8636 35.1915C16.001 35.0541 16.0782 34.8678 16.0782 34.6735H16.9464ZM15.3456 36.2743C14.9211 36.2743 14.5139 36.1056 14.2137 35.8054C13.9135 35.5052 13.7449 35.0981 13.7449 34.6735V23.5903C13.7449 23.1657 13.9135 22.7586 14.2137 22.4584C14.5139 22.1582 14.9211 21.9895 15.3456 21.9895V22.8577C15.1514 22.8577 14.965 22.9349 14.8277 23.0723C14.6903 23.2097 14.6131 23.396 14.6131 23.5903V34.6735C14.6131 34.8678 14.6903 35.0541 14.8277 35.1915C14.965 35.3289 15.1514 35.4061 15.3456 35.4061V36.2743ZM15.3456 21.9895C15.7702 21.9895 16.1774 22.1582 16.4776 22.4584C16.7778 22.7586 16.9464 23.1657 16.9464 23.5903V34.6735C16.9464 35.0981 16.7778 35.5052 16.4776 35.8054C16.1774 36.1056 15.7702 36.2743 15.3456 36.2743V35.4061C15.5399 35.4061 15.7263 35.3289 15.8636 35.1915C16.001 35.0541 16.0782 34.8678 16.0782 34.6735V23.5903C16.0782 23.396 16.001 23.2097 15.8636 23.0723C15.7263 22.9349 15.5399 22.8577 15.3456 22.8577V21.9895Z" fill="#1B271D"/>
</g>
</g>
<path id="Vector_16" d="M21.559 23.5901C21.559 22.766 20.8909 22.0979 20.0667 22.0979C19.2426 22.0979 18.5745 22.766 18.5745 23.5901V34.6734C18.5745 35.4975 19.2426 36.1656 20.0667 36.1656C20.8909 36.1656 21.559 35.4975 21.559 34.6734V23.5901Z" stroke="#19C77F" stroke-width="0.651163"/>
<path id="Vector_17" d="M18.8999 23.5903C18.8999 23.2808 19.0228 22.9841 19.2416 22.7653C19.4604 22.5465 19.7571 22.4236 20.0666 22.4236C20.376 22.4236 20.6727 22.5465 20.8915 22.7653C21.1103 22.9841 21.2332 23.2808 21.2332 23.5903V34.6735C21.2332 34.9829 21.1103 35.2796 20.8915 35.4984C20.6727 35.7172 20.376 35.8401 20.0666 35.8401C19.7571 35.8401 19.4604 35.7172 19.2416 35.4984C19.0228 35.2796 18.8999 34.9829 18.8999 34.6735V23.5903Z" fill="black" fill-opacity="0.5"/>
<g id="Mask group_4">
<mask id="mask4_1_11837" style="mask-type:luminance" maskUnits="userSpaceOnUse" x="18" y="22" width="4" height="14">
<g id="Group_6">
<path id="Vector_18" d="M18.8999 23.5903C18.8999 23.2808 19.0228 22.9841 19.2416 22.7653C19.4604 22.5465 19.7571 22.4236 20.0666 22.4236C20.376 22.4236 20.6727 22.5465 20.8915 22.7653C21.1103 22.9841 21.2332 23.2808 21.2332 23.5903V34.6735C21.2332 34.9829 21.1103 35.2796 20.8915 35.4984C20.6727 35.7172 20.376 35.8401 20.0666 35.8401C19.7571 35.8401 19.4604 35.7172 19.2416 35.4984C19.0228 35.2796 18.8999 34.9829 18.8999 34.6735V23.5903Z" fill="white"/>
</g>
</mask>
<g mask="url(#mask4_1_11837)">
<path id="Vector_19" d="M18.4658 23.5903C18.4658 23.1657 18.6345 22.7586 18.9347 22.4584C19.2349 22.1582 19.642 21.9895 20.0666 21.9895C20.4911 21.9895 20.8983 22.1582 21.1985 22.4584C21.4987 22.7586 21.6674 23.1657 21.6674 23.5903H20.7992C20.7992 23.396 20.722 23.2097 20.5846 23.0723C20.4472 22.9349 20.2609 22.8577 20.0666 22.8577C19.8723 22.8577 19.686 22.9349 19.5486 23.0723C19.4112 23.2097 19.334 23.396 19.334 23.5903H18.4658ZM21.6674 34.6735C21.6674 35.0981 21.4987 35.5052 21.1985 35.8054C20.8983 36.1056 20.4911 36.2743 20.0666 36.2743C19.642 36.2743 19.2349 36.1056 18.9347 35.8054C18.6345 35.5052 18.4658 35.0981 18.4658 34.6735H19.334C19.334 34.8678 19.4112 35.0541 19.5486 35.1915C19.686 35.3289 19.8723 35.4061 20.0666 35.4061C20.2609 35.4061 20.4472 35.3289 20.5846 35.1915C20.722 35.0541 20.7992 34.8678 20.7992 34.6735H21.6674ZM20.0666 36.2743C19.642 36.2743 19.2349 36.1056 18.9347 35.8054C18.6345 35.5052 18.4658 35.0981 18.4658 34.6735V23.5903C18.4658 23.1657 18.6345 22.7586 18.9347 22.4584C19.2349 22.1582 19.642 21.9895 20.0666 21.9895V22.8577C19.8723 22.8577 19.686 22.9349 19.5486 23.0723C19.4112 23.2097 19.334 23.396 19.334 23.5903V34.6735C19.334 34.8678 19.4112 35.0541 19.5486 35.1915C19.686 35.3289 19.8723 35.4061 20.0666 35.4061V36.2743ZM20.0666 21.9895C20.4911 21.9895 20.8983 22.1582 21.1985 22.4584C21.4987 22.7586 21.6674 23.1657 21.6674 23.5903V34.6735C21.6674 35.0981 21.4987 35.5052 21.1985 35.8054C20.8983 36.1056 20.4911 36.2743 20.0666 36.2743V35.4061C20.2609 35.4061 20.4472 35.3289 20.5846 35.1915C20.722 35.0541 20.7992 34.8678 20.7992 34.6735V23.5903C20.7992 23.396 20.722 23.2097 20.5846 23.0723C20.4472 22.9349 20.2609 22.8577 20.0666 22.8577V21.9895Z" fill="#1B271D"/>
</g>
</g>
<path id="Vector_20" d="M49.9454 29.1315C49.9454 26.5542 47.8561 24.4648 45.2787 24.4648C42.7014 24.4648 40.6121 26.5542 40.6121 29.1315C40.6121 31.7088 42.7014 33.7982 45.2787 33.7982C47.8561 33.7982 49.9454 31.7088 49.9454 29.1315Z" fill="#303030" stroke="#19C77F" stroke-width="0.583442"/>
<path id="Vector_21" d="M42.6538 29.1317C42.6538 27.682 43.8292 26.5068 45.2789 26.5068C46.7286 26.5068 47.9039 27.682 47.9039 29.1317C47.9039 30.5814 46.7286 31.7567 45.2789 31.7567C43.8292 31.7567 42.6538 30.5814 42.6538 29.1317Z" fill="#83FF49"/>
<g id="Mask group_5">
<mask id="mask5_1_11837" style="mask-type:luminance" maskUnits="userSpaceOnUse" x="42" y="26" width="6" height="6">
<g id="Group_7">
<path id="Vector_22" d="M42.6538 29.1317C42.6538 27.682 43.8292 26.5068 45.2789 26.5068C46.7286 26.5068 47.9039 27.682 47.9039 29.1317C47.9039 30.5814 46.7286 31.7567 45.2789 31.7567C43.8292 31.7567 42.6538 30.5814 42.6538 29.1317Z" fill="white"/>
</g>
</mask>
<g mask="url(#mask5_1_11837)">
<path id="Vector_23" d="M42.2197 29.1317C42.2197 27.4421 43.5893 26.0728 45.2789 26.0728C46.9684 26.0728 48.3381 27.4421 48.3381 29.1317H47.4698C47.4698 27.9218 46.489 26.941 45.2789 26.941C44.0688 26.941 43.0879 27.9218 43.0879 29.1317H42.2197ZM48.3381 29.1317C48.3381 30.8213 46.9684 32.1909 45.2789 32.1909C43.5893 32.1909 42.2197 30.8213 42.2197 29.1317H43.0879C43.0879 30.3418 44.0688 31.3226 45.2789 31.3226C46.489 31.3226 47.4698 30.3418 47.4698 29.1317H48.3381ZM45.2789 32.1909C43.5893 32.1909 42.2197 30.8213 42.2197 29.1317C42.2197 27.4421 43.5893 26.0728 45.2789 26.0728V26.941C44.0688 26.941 43.0879 27.9218 43.0879 29.1317C43.0879 30.3418 44.0688 31.3226 45.2789 31.3226V32.1909ZM45.2789 26.0728C46.9684 26.0728 48.3381 27.4421 48.3381 29.1317C48.3381 30.8213 46.9684 32.1909 45.2789 32.1909V31.3226C46.489 31.3226 47.4698 30.3418 47.4698 29.1317C47.4698 27.9218 46.489 26.941 45.2789 26.941V26.0728Z" fill="#00A05E"/>
</g>
</g>
<g id="Group_8">
<path id="Vector_24" d="M0.0705566 16.0339H55.4871" stroke="#00804B" stroke-width="1.16667" stroke-linecap="round"/>
</g>
<path id="Vector_25" fill-rule="evenodd" clip-rule="evenodd" d="M0.103027 40.9685V44.7665C0.103027 51.4796 5.54501 56.9216 12.2581 56.9216H43.948C50.661 56.9216 56.103 51.4796 56.103 44.7665V40.9685C56.103 47.6816 50.661 53.1235 43.948 53.1235H12.2581C5.54501 53.1235 0.103027 47.6816 0.103027 40.9685Z" fill="black" fill-opacity="0.2"/>
<path id="Vector_26" fill-rule="evenodd" clip-rule="evenodd" d="M12.2578 0.921387C5.54477 0.921387 0.102783 6.36337 0.102783 13.0764V13.3968C0.759155 7.30322 5.91897 2.55863 12.1873 2.55863H43.9477C50.6608 2.55863 56.1028 8.00061 56.1028 14.7137V13.0764C56.1028 6.36337 50.6608 0.921387 43.9477 0.921387H12.2578Z" fill="white" fill-opacity="0.3"/>
</g>
</g>
</g>
</svg>
