<svg width="41" height="41" viewBox="0 0 41 41" fill="none" xmlns="http://www.w3.org/2000/svg">
<g id="9ec6bdfc1870ae942f24644f5115cfe5bf9cfa80-260x258.svg" clip-path="url(#clip0_1_8235)">
<path id="Vector" d="M0.513428 9.07926C0.513428 4.32111 4.37067 0.463867 9.12882 0.463867H31.5903C36.3484 0.463867 40.2058 4.32112 40.2058 9.07928V18.2428V31.5408C40.2058 36.2989 36.3484 40.1561 31.5903 40.1561H9.12882C4.37067 40.1561 0.513428 36.2989 0.513428 31.5408V9.07926Z" fill="#2797CF"/>
<path id="Vector_2" d="M19.9707 28.3627C41.9302 15.1338 18.2422 29.4355 40.2016 16.2065V32.2784L36.7878 38.6519L19.9707 28.3627Z" fill="#FFFFFE" fill-opacity="0.4"/>
<path id="Vector_3" d="M0.513189 31.2445L0.513184 16.0366L35.8744 37.5652L33.113 39.3529L3.70632 37.6226L0.513189 31.2445Z" fill="#FFFFFE" fill-opacity="0.4"/>
<path id="Vector_4" opacity="0.1" fill-rule="evenodd" clip-rule="evenodd" d="M0.513679 11.8287L0.513672 9.63721L20.3596 21.8445L40.2075 9.66372V11.8553L20.3598 24.0361L0.513679 11.8287Z" fill="black"/>
<path id="Vector_5" d="M20.4172 21.7398L0.513428 9.63769V9.14651C0.513428 4.35122 4.41453 0.463868 9.22678 0.463868L31.4924 0.463867C36.3493 0.463869 40.2687 4.42102 40.205 9.26045L40.2 9.63769L20.4172 21.7398Z" fill="#FFFFFE" fill-opacity="0.4"/>
<path id="Vector_6" d="M0.611232 8.30713L20.3595 20.4167L40.1197 8.31844L40.1809 9.15362V9.81279L20.3595 21.9481L0.53833 9.81279V9.07681L0.611232 8.30713Z" fill="#B1DAEE"/>
<path id="Vector_7" d="M20.3595 28.0344L0.53833 15.8992V17.4304L33.5821 37.6699L34.4821 37.4066L35.1718 37.1136L21.6013 28.8053L40.1809 17.4304V15.8992L20.3595 28.0344Z" fill="#B1DAEE"/>
<path id="Vector_8" fill-rule="evenodd" clip-rule="evenodd" d="M0.513672 28.8486V31.5408C0.513672 36.2989 4.37091 40.1562 9.12906 40.1562H31.5906C36.3488 40.1562 40.206 36.2989 40.206 31.5408V28.8486C40.206 33.6068 36.3488 37.464 31.5906 37.464H9.12906C4.37091 37.464 0.513672 33.6068 0.513672 28.8486Z" fill="#2797CF"/>
<path id="Vector_9" fill-rule="evenodd" clip-rule="evenodd" d="M9.12881 0.463867C4.37067 0.463867 0.513428 4.32111 0.513428 9.07925V9.30631C0.978725 4.98716 4.63606 1.62429 9.07884 1.62429H31.5904C36.3485 1.62429 40.2057 5.48153 40.2057 10.2397V9.07925C40.2057 4.32111 36.3485 0.463867 31.5904 0.463867H9.12881Z" fill="white" fill-opacity="0.3"/>
</g>
<defs>
<clipPath id="clip0_1_8235">
<rect width="40" height="39.6923" fill="white" transform="translate(0.359863 0.463867)"/>
</clipPath>
</defs>
</svg>
