<svg width="48" height="49" viewBox="0 0 48 49" fill="none" xmlns="http://www.w3.org/2000/svg">
<g id="988b068e7253925f07bc56575dc50c1ce937c34f-28x28.svg">
<g id="Group" filter="url(#filter0_d_1_5964)">
<g id="Clip path group">
<mask id="mask0_1_5964" style="mask-type:luminance" maskUnits="userSpaceOnUse" x="6" y="7" width="36" height="35">
<g id="clip0_1211_56578">
<path id="Vector" d="M6.85711 7.16724H41.1428V41.4529H6.85711V7.16724Z" fill="white"/>
</g>
</mask>
<g mask="url(#mask0_1_5964)">
<g id="Group_2">
<path id="Vector_2" fill-rule="evenodd" clip-rule="evenodd" d="M24 7.16724C33.4715 7.16724 41.1429 14.8387 41.1429 24.3101C41.1429 31.8958 36.2357 38.3029 29.4215 40.5744C28.5643 40.7244 28.2429 40.2101 28.2429 39.7601C28.2429 39.353 28.2643 38.003 28.2643 36.5672C32.5715 37.3601 33.6857 35.5172 34.0286 34.553C34.2215 34.0601 35.0572 32.5387 35.7857 32.1315C36.3857 31.8101 37.2429 31.0172 35.8072 30.9958C34.4572 30.9744 33.4929 32.2387 33.1715 32.7529C31.6286 35.3458 29.1643 34.6172 28.1786 34.1672C28.0286 33.053 27.5786 32.303 27.0857 31.8744C30.9 31.4458 34.8857 29.9672 34.8857 23.4101C34.8857 21.5458 34.2215 20.003 33.1286 18.803C33.3 18.3744 33.9 16.6172 32.9572 14.2601C32.9572 14.2601 31.5215 13.8101 28.2429 16.0172C26.8715 15.6315 25.4143 15.4387 23.9572 15.4387C22.5 15.4387 21.0429 15.6315 19.6715 16.0172C16.3929 13.7887 14.9572 14.2601 14.9572 14.2601C14.0143 16.6172 14.6143 18.3744 14.7857 18.803C13.6929 20.003 13.0286 21.5244 13.0286 23.4101C13.0286 29.9887 17.0357 31.4458 20.85 31.8744C20.2286 32.4101 19.6929 33.4387 19.6929 35.0458C19.6929 37.3387 19.7143 39.1815 19.7143 39.7601C19.7143 40.2101 19.3929 40.7458 18.5357 40.5744C11.7643 38.3029 6.85718 31.8744 6.85718 24.3101C6.85718 14.8387 14.5286 7.16724 24 7.16724Z" fill="black" fill-opacity="0.1"/>
</g>
</g>
</g>
</g>
</g>
<defs>
<filter id="filter0_d_1_5964" x="6.85718" y="7.16724" width="35.9999" height="35.1542" filterUnits="userSpaceOnUse" color-interpolation-filters="sRGB">
<feFlood flood-opacity="0" result="BackgroundImageFix"/>
<feColorMatrix in="SourceAlpha" type="matrix" values="0 0 0 0 0 0 0 0 0 0 0 0 0 0 0 0 0 0 127 0" result="hardAlpha"/>
<feOffset dx="1.71429" dy="1.71429"/>
<feComposite in2="hardAlpha" operator="out"/>
<feColorMatrix type="matrix" values="0 0 0 0 0 0 0 0 0 0 0 0 0 0 0 0 0 0 0.1 0"/>
<feBlend mode="normal" in2="BackgroundImageFix" result="effect1_dropShadow_1_5964"/>
<feBlend mode="normal" in="SourceGraphic" in2="effect1_dropShadow_1_5964" result="shape"/>
</filter>
</defs>
</svg>
