<svg width="48" height="49" viewBox="0 0 48 49" fill="none" xmlns="http://www.w3.org/2000/svg">
<g id="a8a2571c941dd8d561c4df1dddd3ee7f5aded53b-28x28.svg">
<g id="Group" filter="url(#filter0_d_1_5973)">
<path id="Vector" d="M34 7.16724H14C10.0557 7.16724 6.85718 10.3658 6.85718 14.3101V34.31C6.85718 38.2544 10.0557 41.4529 14 41.4529H34C37.9457 41.4529 41.1429 38.2544 41.1429 34.31V14.3101C41.1429 10.3658 37.9457 7.16724 34 7.16724ZM18.2858 34.31H14V18.5959H18.2858V34.31ZM16.1429 16.7844C14.7629 16.7844 13.6429 15.6558 13.6429 14.2644C13.6429 12.8729 14.7629 11.7444 16.1429 11.7444C17.5229 11.7444 18.6429 12.8729 18.6429 14.2644C18.6429 15.6558 17.5243 16.7844 16.1429 16.7844ZM35.4287 34.31H31.1429V26.3043C31.1429 21.493 25.4285 21.8573 25.4285 26.3043V34.31H21.1428V18.5959H25.4285V21.1172C27.4229 17.4229 35.4287 17.1501 35.4287 24.6543V34.31Z" fill="black" fill-opacity="0.1"/>
</g>
</g>
<defs>
<filter id="filter0_d_1_5973" x="6.85718" y="7.16724" width="35.9999" height="35.9999" filterUnits="userSpaceOnUse" color-interpolation-filters="sRGB">
<feFlood flood-opacity="0" result="BackgroundImageFix"/>
<feColorMatrix in="SourceAlpha" type="matrix" values="0 0 0 0 0 0 0 0 0 0 0 0 0 0 0 0 0 0 127 0" result="hardAlpha"/>
<feOffset dx="1.71429" dy="1.71429"/>
<feComposite in2="hardAlpha" operator="out"/>
<feColorMatrix type="matrix" values="0 0 0 0 0 0 0 0 0 0 0 0 0 0 0 0 0 0 0.1 0"/>
<feBlend mode="normal" in2="BackgroundImageFix" result="effect1_dropShadow_1_5973"/>
<feBlend mode="normal" in="SourceGraphic" in2="effect1_dropShadow_1_5973" result="shape"/>
</filter>
</defs>
</svg>
