<svg width="26" height="26" viewBox="0 0 26 26" fill="none" xmlns="http://www.w3.org/2000/svg">
<g id="SVG" clip-path="url(#clip0_1_11900)">
<path id="Vector" d="M15.904 2.01289C16.9773 1.99323 18.0417 2.2111 19.021 2.65089C18.2873 2.18234 17.5038 1.79665 16.685 1.50089C14.6756 0.759028 12.5069 0.556641 10.395 0.913887C8.28067 1.27297 6.29683 2.17819 4.64 3.53989C4.535 3.61789 4.258 3.87389 4.149 3.96589C4.039 4.05789 3.789 4.30589 3.694 4.42389C3.599 4.54389 3.385 4.74989 3.24 4.88289C3.095 5.01589 2.917 5.26289 2.822 5.38289L2.495 5.81289C2.408 5.93289 2.209 6.22989 2.127 6.34989C2.045 6.46889 1.99 6.57389 1.954 6.62989C1.918 6.68389 1.836 6.82189 1.814 6.85789C1.791 6.89489 1.577 7.28889 1.522 7.38089C1.468 7.47289 1.304 7.83889 1.241 7.96789L1.027 8.46789C1.027 8.52189 0.863996 8.92589 0.836996 8.97589C0.808996 9.02589 0.740996 9.26889 0.704996 9.38889C0.626996 9.61789 0.558996 9.88389 0.494996 10.1169C0.458996 10.2589 0.386996 10.6119 0.354996 10.7539V10.8639C-0.175004 13.7819 0.344996 16.7939 1.822 19.3579C1.972 19.6059 2.177 19.9449 2.349 20.1779C2.413 20.2749 2.527 20.4399 2.599 20.5319L2.863 20.8799L3.281 21.3749L3.735 21.8329C3.822 21.9109 3.958 22.0579 4.049 22.1309L4.212 22.2729L4.253 22.3049L4.294 22.3369L4.376 22.4069C4.48 22.4929 4.612 22.5849 4.721 22.6629L4.808 22.7229L4.898 22.7829C4.994 22.8459 5.162 22.9519 5.267 23.0069C5.371 23.0619 5.403 23.0889 5.453 23.1119L5.739 23.2539C5.83 23.2999 5.949 23.3499 6.034 23.3869C6.248 23.4739 6.489 23.5519 6.689 23.6249C6.807 23.6529 6.934 23.6949 7.052 23.7259L7.366 23.7959L7.684 23.8499C8.049 23.9049 8.418 23.9319 8.788 23.9329C9.69001 23.9065 10.5792 23.7121 11.41 23.3599C12.2891 22.9801 13.0831 22.4279 13.745 21.7359C14.409 21.0419 14.9281 20.2226 15.272 19.3259L15.349 19.1239C15.349 19.0549 15.427 18.8769 15.449 18.8129C15.49 18.6479 15.549 18.4509 15.581 18.2859C15.581 18.2259 15.617 18.1339 15.626 18.0749C15.679 17.7579 15.714 17.4379 15.731 17.1169V16.7409C15.495 16.7409 15.277 16.7089 15.031 16.6809C13.1837 16.4501 11.4949 15.5204 10.312 14.0829C9.12299 12.6384 8.52491 10.7974 8.638 8.92989C8.74863 7.06313 9.56305 5.30779 10.917 4.01789C12.2642 2.73464 14.0525 2.01732 15.913 2.01389H15.903L15.904 2.01289ZM5.648 20.6779C5.36769 20.4411 5.10219 20.1873 4.853 19.9179C3.79316 18.7796 2.97954 17.4349 2.463 15.9679C1.9454 14.4986 1.73495 12.9386 1.8447 11.3847C1.95444 9.83075 2.38203 8.31587 3.101 6.93389C3.81803 5.55602 4.81217 4.34127 6.021 3.36589C6.111 3.28789 6.257 3.18589 6.348 3.11789C6.71098 2.84583 7.09037 2.59635 7.484 2.37089C8.74557 1.66145 10.1361 1.21098 11.574 1.04589L12.104 0.999887H13.172L12.64 1.04189L12.113 1.10989L11.591 1.19789C10.0056 1.49084 8.50351 2.12705 7.19 3.06189C5.8722 3.99978 4.77387 5.21274 3.971 6.61689C3.1662 8.02619 2.67459 9.59238 2.52963 11.2088C2.38468 12.8252 2.58979 14.4539 3.131 15.9839C3.57116 17.2172 4.22665 18.3626 5.067 19.3669L5.148 19.4679L5.189 19.5179L5.235 19.5639C5.46 19.8259 5.702 20.0739 5.957 20.3069C6.87398 21.1162 8.00639 21.6416 9.21649 21.8191C10.4266 21.9967 11.6622 21.8187 12.773 21.3069C11.661 21.9347 10.3849 22.2107 9.11286 22.0984C7.84085 21.9861 6.63277 21.4908 5.648 20.6779ZM7.18 18.5779L7.098 18.4919L7.052 18.4509L6.748 18.1389C5.83398 17.1624 5.1247 16.0128 4.662 14.7579C4.19821 13.5005 3.98967 12.1633 4.04857 10.8244C4.10746 9.48545 4.4326 8.17171 5.005 6.95989C5.57569 5.75121 6.38294 4.66922 7.379 3.77789C7.87347 3.33994 8.41086 2.95298 8.983 2.62289C9.18299 2.51289 9.438 2.37989 9.638 2.27489C9.715 2.23289 9.788 2.21089 9.85999 2.17389C10.7566 1.77289 11.7099 1.51314 12.686 1.40389C12.814 1.40389 13.041 1.36689 13.168 1.36289H13.532C13.896 1.35689 14.26 1.37289 14.622 1.40789C14.06 1.41489 13.5 1.46589 12.946 1.55989C11.3486 1.82561 9.84077 2.4794 8.555 3.46389C7.26448 4.4522 6.23412 5.73999 5.553 7.21589C4.84235 8.79716 4.55859 10.5371 4.73001 12.2622C4.90144 13.9873 5.52206 15.6374 6.53 17.0479C6.607 17.1439 6.734 17.3279 6.816 17.4239C6.952 17.5939 7.125 17.7999 7.27 17.9599C8.0786 18.8834 9.17373 19.5088 10.38 19.7359C11.5841 19.9613 12.829 19.7746 13.914 19.2059C11.882 20.6509 8.965 20.2469 7.18 18.5789V18.5779ZM8.41 15.2779C8.79599 15.8379 9.254 16.3429 9.774 16.7779C10.4102 17.2994 11.1652 17.656 11.9721 17.8159C12.779 17.9759 13.613 17.9343 14.4 17.6949C13.7468 17.981 13.0383 18.1187 12.3255 18.098C11.6127 18.0772 10.9134 17.8986 10.278 17.5749C9.62601 17.2515 9.0416 16.8069 8.55599 16.2649C7.71821 15.3519 7.08448 14.2709 6.697 13.0939C6.3087 11.9151 6.17468 10.6674 6.30379 9.43309C6.43289 8.19875 6.82218 7.00579 7.446 5.93289C8.06783 4.86367 8.91099 3.9397 9.91899 3.22289C10.019 3.14989 10.174 3.05389 10.283 2.98489C10.483 2.85189 10.737 2.72389 10.933 2.60889C11.128 2.49489 11.269 2.44389 11.419 2.37989C12.3361 1.98705 13.3164 1.76214 14.313 1.71589H15.159L15.472 1.74289C15.645 1.74289 15.817 1.78889 15.99 1.81189H15.054C14.262 1.86248 13.48 2.01645 12.728 2.26989C11.4677 2.68329 10.3225 3.38763 9.385 4.32589C8.44431 5.26736 7.73651 6.41552 7.318 7.67889C6.89877 8.94441 6.77928 10.29 6.96896 11.6096C7.15864 12.9292 7.65229 14.1867 8.411 15.2829V15.2789L8.41 15.2779Z" fill="black"/>
<path id="Vector_2" d="M20.0198 22.6948C20.1198 22.6168 20.4018 22.3598 20.5108 22.2688L20.9658 21.8098L21.4199 21.3518C21.5248 21.2278 21.7428 20.9758 21.8378 20.8518L22.1648 20.4218C22.2518 20.3018 22.4518 20.0038 22.5328 19.8848L22.7058 19.6048C22.7328 19.5688 22.8238 19.4128 22.8468 19.3758C22.8698 19.3398 23.0829 18.9498 23.1329 18.8538C23.1828 18.7578 23.3559 18.3948 23.4198 18.2668C23.4828 18.1388 23.5699 17.9138 23.6329 17.7668C23.6329 17.7168 23.7968 17.3088 23.8188 17.2588C23.8418 17.2088 23.9188 16.9648 23.9558 16.8458C24.0328 16.6168 24.1008 16.3508 24.1648 16.1168C24.2008 15.9748 24.2688 15.6218 24.3048 15.4798V15.3748C24.8358 12.459 24.316 9.4495 22.8378 6.88076C22.6878 6.62876 22.4838 6.29476 22.3108 6.05576C22.2317 5.93521 22.1483 5.81748 22.0608 5.70276L21.7968 5.35976C21.7068 5.25376 21.4658 4.95976 21.3749 4.85976C21.2839 4.75976 21.0749 4.53476 20.9199 4.40176C20.8389 4.32376 20.6979 4.17676 20.6109 4.10376L20.4479 3.96576L20.4068 3.92876L20.3658 3.89676L20.2798 3.82876C20.1798 3.74176 20.0478 3.64876 19.9388 3.57176L19.8478 3.51176L19.7618 3.45176C19.6618 3.38876 19.4978 3.28276 19.3938 3.22776C19.2888 3.17276 19.2568 3.14576 19.2068 3.12276L18.9208 2.98076L18.6258 2.84776C18.4118 2.76076 18.1708 2.68276 17.9708 2.60876L17.6079 2.51276L17.2938 2.43976L16.9759 2.38476C16.6104 2.32978 16.2414 2.30203 15.8718 2.30176C14.9708 2.32876 14.0818 2.52176 13.2498 2.87476C12.3707 3.25479 11.5767 3.80736 10.9148 4.49976C10.2509 5.19374 9.73179 6.01301 9.38785 6.90976L9.31085 7.11576C9.28785 7.17976 9.23385 7.35876 9.21085 7.42276C9.16585 7.58776 9.11085 7.78476 9.07885 7.94976C9.07885 8.00976 9.04285 8.10176 9.03385 8.16076C8.97544 8.48204 8.93737 8.80668 8.91985 9.13276V9.53176C9.88237 9.54287 10.8328 9.74725 11.7148 10.1328C12.5987 10.5196 13.3963 11.0793 14.0608 11.7788C14.7275 12.4803 15.2483 13.3073 15.5928 14.2118C15.938 15.118 16.1011 16.0834 16.0728 17.0528C16.0208 18.2742 15.6736 19.4648 15.0608 20.5228C14.4506 21.5766 13.5924 22.4656 12.5608 23.1128C11.5331 23.7574 10.3627 24.1397 9.1526 24.226C7.94248 24.3123 6.72969 24.1 5.62085 23.6078C8.18662 25.2342 11.2645 25.851 14.2588 25.3388C16.3771 24.9753 18.3635 24.0642 20.0209 22.6958L20.0198 22.6948ZM19.0209 5.54276C19.3028 5.78076 19.5708 6.03476 19.8248 6.30276C21.856 8.48881 22.9457 11.386 22.8588 14.3688C22.7763 17.3507 21.5233 20.1804 19.3708 22.2458C19.2608 22.3458 19.0848 22.5208 18.9668 22.6128L18.7569 22.7868L18.6488 22.8778L18.5988 22.9198L18.3258 23.1258C17.9588 23.3958 17.5768 23.6448 17.1809 23.8678L16.6988 24.1248C15.0825 24.9311 13.2875 25.3131 11.4828 25.2348C14.4076 25.0748 17.1573 23.7902 19.1568 21.6498C20.9471 19.7265 22.0022 17.2338 22.1368 14.6098C22.2745 11.9844 21.4837 9.39436 19.9029 7.29376C19.8069 7.15576 19.6798 7.01376 19.5748 6.88576L19.4938 6.78576L19.4528 6.73476L19.4118 6.68476C18.5247 5.59735 17.3024 4.8343 15.9358 4.51476C14.5718 4.19762 13.141 4.34327 11.8688 4.92876C12.9824 4.29303 14.263 4.01128 15.5406 4.12096C16.8181 4.23063 18.032 4.72654 19.0209 5.54276ZM17.2038 7.37576C17.3488 7.49076 17.4938 7.62776 17.6308 7.75176C18.8005 8.8877 19.6746 10.2925 20.1769 11.8438C20.6809 13.3968 20.7989 15.0518 20.5209 16.6618C20.2433 18.27 19.5774 19.7863 18.5808 21.0788C17.5886 22.3669 16.2945 23.391 14.8128 24.0608L14.5858 24.1568L14.5318 24.1798L14.4718 24.2028L14.3588 24.2488C14.2408 24.2898 14.0228 24.3768 13.9048 24.4138C12.6648 24.819 11.3535 24.9593 10.0558 24.8258C10.6958 24.8148 11.3358 24.7468 11.9648 24.6248C13.5119 24.3203 14.9638 23.6507 16.1998 22.6718C17.4409 21.6891 18.4313 20.4262 19.0898 18.9868C19.8131 17.3733 20.0912 15.5956 19.8953 13.8384C19.6994 12.0811 19.0366 10.4083 17.9759 8.99376C17.8939 8.87976 17.7718 8.73776 17.6858 8.62776C17.5988 8.51776 17.4168 8.32476 17.2938 8.16876C16.4771 7.28261 15.3911 6.69039 14.2038 6.48376C13.0183 6.27887 11.7983 6.4719 10.7338 7.03276C12.6548 5.65676 15.4138 5.93276 17.2078 7.39476L17.2038 7.37576ZM12.3418 23.7908L12.7188 23.6308L13.0868 23.4508C13.2268 23.3828 13.3958 23.2808 13.5408 23.2038L13.9728 22.9338C14.0958 22.8458 14.2678 22.7268 14.3858 22.6348C16.0837 21.3459 17.2366 19.4672 17.6168 17.3698C18.0002 15.269 17.5855 13.1007 16.4538 11.2898L16.2308 10.9518L15.9908 10.6258L15.7358 10.3058C15.4792 9.9947 15.1932 9.70905 14.8818 9.45276C14.2463 8.9334 13.4928 8.57816 12.6878 8.41826C11.8827 8.25836 11.0507 8.29871 10.2648 8.53576C11.0575 8.19035 11.9271 8.05979 12.7862 8.15722C13.6454 8.25465 14.4637 8.57663 15.1588 9.09076C15.6288 9.43076 16.0559 9.83176 16.4269 10.2818C17.3461 11.3733 17.9828 12.6742 18.2808 14.0698C18.5799 15.4674 18.5318 16.917 18.1408 18.2918C17.7513 19.6636 17.0301 20.9185 16.0408 21.9458C15.0552 22.9692 13.8309 23.732 12.4778 24.1658C11.2567 24.5466 9.96286 24.6333 8.70185 24.4188C9.94534 24.465 11.1852 24.2574 12.3458 23.8088L12.3418 23.7908Z" fill="black"/>
</g>
<defs>
<clipPath id="clip0_1_11900">
<rect width="25" height="26" fill="white" transform="translate(0.129883)"/>
</clipPath>
</defs>
</svg>
