<svg width="56" height="57" viewBox="0 0 56 57" fill="none" xmlns="http://www.w3.org/2000/svg">
<g id="Clip path group">
<mask id="mask0_1_11824" style="mask-type:luminance" maskUnits="userSpaceOnUse" x="0" y="0" width="57" height="57">
<g id="pages_svg__a">
<path id="Vector" d="M0.0705566 0.840088H56.0706V56.8401H0.0705566V0.840088Z" fill="white"/>
</g>
</mask>
<g mask="url(#mask0_1_11824)">
<g id="Group">
<path id="Vector_2" d="M0.0705296 12.9951C0.0705296 6.28207 5.51251 0.840088 12.2256 0.840088H43.9153C50.6283 0.840088 56.0703 6.28207 56.0703 12.9951V44.6848C56.0703 51.3979 50.6283 56.8401 43.9153 56.8401H12.2254C5.51251 56.8401 0.0703125 51.3979 0.0703125 44.685L0.0705296 12.9951Z" fill="#FFFFFE"/>
<path id="Vector_3" d="M30.9883 0.840088H43.9152C50.6282 0.840088 56.0702 6.28207 56.0702 12.9951V25.9233H36.1976C33.3205 25.9233 30.9883 23.5911 30.9883 20.714V0.840088Z" fill="#EF5A3C"/>
<path id="Vector_4" d="M30.9871 0.840088L56.0703 25.9233H34.9869C32.7778 25.9233 30.9871 24.1324 30.9871 21.9232V0.840088Z" fill="white"/>
<path id="Vector_5" d="M32.2881 0.841553L56.0703 24.6346V25.9686L30.9812 0.841553H32.2881Z" fill="#C24228"/>
<path id="Vector_6" fill-rule="evenodd" clip-rule="evenodd" d="M0.103027 40.9685V44.7665C0.103027 51.4796 5.54501 56.9216 12.2581 56.9216H43.948C50.661 56.9216 56.103 51.4796 56.103 44.7665V40.9685C56.103 47.6816 50.661 53.1235 43.948 53.1235H12.2581C5.54501 53.1235 0.103027 47.6816 0.103027 40.9685Z" fill="#CCCCCB"/>
<path id="Vector_7" fill-rule="evenodd" clip-rule="evenodd" d="M12.2578 0.921387C5.54477 0.921387 0.102783 6.36337 0.102783 13.0764V13.3968C0.759155 7.30322 5.91897 2.55863 12.1873 2.55863H43.9477C50.6608 2.55863 56.1028 8.00061 56.1028 14.7137V13.0764C56.1028 6.36337 50.6608 0.921387 43.9477 0.921387H12.2578Z" fill="white" fill-opacity="0.3"/>
<path id="Vector_8" fill-rule="evenodd" clip-rule="evenodd" d="M30.8978 0.841553V21.9447C30.8978 24.1623 32.6957 25.9602 34.9133 25.9602H56.1518V27.4795H34.9133C31.8565 27.4795 29.3784 25.0014 29.3784 21.9447V0.841553H30.8978Z" fill="#CCCCCB"/>
</g>
</g>
</g>
</svg>
