<svg width="48" height="49" viewBox="0 0 48 49" fill="none" xmlns="http://www.w3.org/2000/svg">
<g id="eff957d82ddce7ce69cb6ab0692014b5cc02f9cd-28x28.svg">
<g id="Group" filter="url(#filter0_d_1_5954)">
<path id="Vector" d="M36.8963 17.2889C36.9172 17.5857 36.9172 17.8824 36.9172 18.1819C36.9172 27.3076 29.8413 37.8322 16.9029 37.8322V37.8268C13.0808 37.8322 9.33817 36.7574 6.12061 34.7306C6.67638 34.7962 7.23491 34.8292 7.79485 34.8305C10.9623 34.8333 14.0391 33.7898 16.531 31.8684C13.521 31.8122 10.8815 29.8853 9.95939 27.0724C11.0138 27.2721 12.1002 27.2309 13.1352 26.9534C9.85353 26.3025 7.4926 23.4715 7.4926 20.184C7.4926 20.1538 7.4926 20.1252 7.4926 20.0964C8.47039 20.6311 9.56521 20.928 10.6851 20.9608C7.59427 18.9328 6.64154 14.8957 8.508 11.7394C12.0793 16.054 17.3486 18.677 23.0051 18.9545C22.4382 16.5559 23.2127 14.0423 25.0401 12.3561C27.8732 9.74137 32.3291 9.8754 34.9922 12.6556C36.5675 12.3507 38.0774 11.7831 39.4592 10.979C38.9341 12.5777 37.835 13.9356 36.3669 14.7986C37.7613 14.6372 39.1235 14.2707 40.4063 13.7114C39.4619 15.1008 38.2724 16.3111 36.8963 17.2889Z" fill="black" fill-opacity="0.1"/>
</g>
</g>
<defs>
<filter id="filter0_d_1_5954" x="6.12061" y="10.4795" width="35.9999" height="29.0671" filterUnits="userSpaceOnUse" color-interpolation-filters="sRGB">
<feFlood flood-opacity="0" result="BackgroundImageFix"/>
<feColorMatrix in="SourceAlpha" type="matrix" values="0 0 0 0 0 0 0 0 0 0 0 0 0 0 0 0 0 0 127 0" result="hardAlpha"/>
<feOffset dx="1.71429" dy="1.71429"/>
<feComposite in2="hardAlpha" operator="out"/>
<feColorMatrix type="matrix" values="0 0 0 0 0 0 0 0 0 0 0 0 0 0 0 0 0 0 0.1 0"/>
<feBlend mode="normal" in2="BackgroundImageFix" result="effect1_dropShadow_1_5954"/>
<feBlend mode="normal" in="SourceGraphic" in2="effect1_dropShadow_1_5954" result="shape"/>
</filter>
</defs>
</svg>
